<svg width="601" height="109" viewBox="0 0 601 109" fill="none" xmlns="http://www.w3.org/2000/svg">
<path fill-rule="evenodd" clip-rule="evenodd" d="M79.8031 88.5651V101.326H0V13.5671H14.3669V88.5651H79.8031ZM68.632 45.4806L84.5888 15.1602H69.4286L57.4578 45.4806H68.632ZM199.103 27.9725C193.929 19.8303 186.371 12.9857 177.471 8.32204C168.571 3.65514 158.328 1.16913 148.088 1.16913C137.849 1.16913 127.603 3.65514 118.706 8.32204C109.805 12.9857 102.245 19.8303 97.0703 27.9725C91.8959 36.1115 89.1015 45.5513 89.1015 54.9911C89.1015 64.4276 91.8959 73.8674 97.0703 82.0064C102.245 90.1486 109.802 96.9932 118.706 101.657C127.606 106.324 137.849 108.81 148.088 108.81C158.328 108.81 168.571 106.327 177.471 101.657C186.371 96.9932 193.929 90.1486 199.103 82.0064C204.281 73.8674 207.072 64.4244 207.072 54.9911C207.072 45.5545 204.281 36.1147 199.103 27.9725ZM186.686 76.4819C182.825 82.8672 177.175 88.2536 170.507 91.9312C163.839 95.6056 156.157 97.5649 148.47 97.5649C140.784 97.5649 133.101 95.6056 126.434 91.9312C119.769 88.2536 114.119 82.8704 110.255 76.4819C106.391 70.0935 104.316 62.7061 104.316 55.3187C104.316 47.9281 106.391 40.5407 110.255 34.1554C114.119 27.7701 119.766 22.3838 126.434 18.7094C133.101 15.0317 140.788 13.0725 148.47 13.0725C156.153 13.0725 163.839 15.0317 170.507 18.7094C177.175 22.3838 182.822 27.7669 186.686 34.1554C190.551 40.5398 192.605 47.8557 192.628 55.3187C192.603 62.7815 190.549 70.0971 186.686 76.4819ZM307.251 51.413C304.653 57.1302 299.738 60.4352 295.894 62.4331C292.049 64.4341 289.277 65.1278 286.486 65.0283L314.417 101.329H298.457L271.445 66.2263H236.21V101.329H221.846V13.5671H279.301C285.108 13.5671 290.999 14.7105 296.196 17.6334C301.393 20.5562 305.889 24.9983 308.003 31.284C310.113 37.5665 309.843 45.6958 307.251 51.413ZM291.182 50.8124C294.208 48.2557 296 44.0513 295.842 39.8823C295.688 35.71 293.584 31.5795 290.581 29.0581C287.575 26.54 283.733 26.3312 280.101 26.3312H236.21V53.459H280.101C283.981 53.459 288.156 53.3723 291.182 50.8124ZM390.228 51.0661V63.0305H341.548V88.5651H406.984V101.326H327.181V13.5671H406.984V26.3312H341.548V51.0661H390.228ZM391.024 0H369.475L360.7 11.171L391.024 0ZM435.12 78.9872L423.741 101.326H409.38L454.064 13.5639H468.431L513.122 101.326H498.755L487.381 78.9872H435.12ZM461.246 27.6706L440.802 67.8194H481.69L461.246 27.6706ZM600.1 88.5651V101.326H520.303V13.5671H534.664V88.5651H600.1ZM593.882 31.178L593.756 29.0838C593.737 28.6984 593.769 28.3129 593.612 27.8761C593.454 27.4265 593.213 27.0103 592.902 26.6492C592.681 26.3773 592.366 26.1993 592.019 26.1513C592.639 25.9353 593.163 25.5077 593.5 24.9437C593.875 24.343 594.107 23.5497 594.097 22.6985C594.087 21.8474 593.827 20.9352 593.374 20.2607C592.395 18.825 590.67 18.5809 589.16 18.6515H582.804V33.3139H585.271V27.2916H588.958C589.359 27.2916 590.031 27.237 590.702 27.7605C591.592 28.8108 591.197 30.1919 591.354 31.3643C591.367 32.0645 591.434 32.7261 591.723 33.3139H594.495V32.861C593.991 32.6522 593.946 31.9199 593.882 31.178ZM590.834 24.7188C590.069 25.2071 589.279 25.2103 588.733 25.2006H585.251V20.7361C586.771 20.7553 588.299 20.6718 589.806 20.7939C590.153 20.8313 590.485 20.9573 590.769 21.1598C591.054 21.3623 591.282 21.6344 591.431 21.9502C591.749 22.9202 591.762 23.9608 590.834 24.7188Z" fill="white"/>
</svg>
