<svg width="652" height="652" viewBox="0 0 652 652" fill="none" xmlns="http://www.w3.org/2000/svg">
<path d="M419.356 277H401.5V310.595C398.923 285.468 389.627 277 376.005 277C365.789 277 358.15 282.062 353.455 295.316C350.05 282.154 340.294 277 324.095 277H306.239V310.595H305.779C303.202 285.468 293.906 277 280.284 277C267.122 277 257.734 285.468 254.789 310.595H254.329V277H231.319L222.851 327.162H222.391L215.12 277H191.281V296.144C189.164 284.639 182.353 277 169.56 277C155.478 277 147.838 286.756 146.55 299.09C142.684 282.522 134.216 277 123.172 277C110.838 277 101.91 284.271 98.505 305.072C97.6767 290.162 93.4428 277 75.495 277C61.4129 277 50 289.794 50 325.965C50 356.983 56.3508 374.93 75.495 374.93C92.5224 374.93 97.2164 361.309 98.505 347.687C101.91 368.119 110.838 374.93 123.172 374.93C135.045 374.93 143.605 368.119 147.378 348.975C148.207 361.309 152.901 374.93 170.388 374.93C180.144 374.93 187.416 370.697 191.281 363.425V374.47H204.443V302.955H204.903L216.776 374.47H226.532L238.406 302.955H238.866V374.47H254.605V340.876H255.065C257.642 366.003 266.938 374.47 280.56 374.47C293.722 374.47 303.11 366.003 306.055 340.876H306.515V374.47H324.371V335.353H331.642C340.57 335.353 346.552 331.948 350.326 326.425C350.326 363.057 360.543 374.47 376.281 374.47C389.443 374.47 398.831 366.003 401.776 340.876V374.47H442.182V359.56H419.632V277H419.356ZM84.1468 337.47C83.6866 351.092 82.4901 359.56 76.5075 359.56C70.9851 359.56 69.2363 356.154 69.2363 325.137C69.2363 293.659 73.102 291.542 76.8756 291.542C81.1095 291.542 83.2264 297.525 83.2264 312.804L98.1368 312.343C97.6766 316.577 97.6766 320.811 97.6766 325.965C97.6766 330.659 97.6766 334.893 98.1368 338.759L84.1468 337.47ZM130.075 335.721C130.075 356.154 127.498 359.928 123.724 359.928C119.49 359.928 117.373 355.694 117.373 335.721V315.749C117.373 295.316 119.95 291.542 123.724 291.542C127.958 291.542 130.075 295.776 130.075 315.749V335.721ZM171.309 360.02C163.669 360.02 163.669 350.632 163.669 345.57H148.391C149.219 340.047 149.679 333.236 149.679 325.597C149.679 321.731 149.679 317.958 149.219 314.552C156.858 332.04 179.04 337.102 179.04 351.184C179.04 354.406 177.291 360.02 171.309 360.02ZM162.841 300.01C162.841 294.948 165.418 291.542 169.652 291.542C176.923 291.542 176.923 300.47 176.923 305.624H191.833V334.157C183.274 318.694 162.841 312.711 162.841 300.01ZM287.095 335.721C287.095 356.154 284.518 360.388 280.744 360.388C276.51 360.388 274.393 356.154 274.393 335.721V315.749C274.393 295.316 276.97 291.082 280.744 291.082C284.978 291.082 287.095 295.316 287.095 315.749V335.721ZM325.751 321.271H324.095V291.91H325.383C331.366 291.91 336.888 292.371 336.888 306.361C336.888 318.326 333.023 321.271 325.751 321.271ZM382.356 335.721C382.356 356.154 379.779 360.388 376.005 360.388C371.771 360.388 369.654 356.154 369.654 335.721V315.749C369.654 295.316 372.232 291.082 376.005 291.082C380.239 291.082 382.356 295.316 382.356 315.749V335.721ZM444.943 277H462.799V374.47H444.943V277ZM513.881 277H465.376V291.91H480.655V374.47H498.51V291.91H513.789V277M587.421 277V328.45H586.961L570.762 277H553.274V362.137L542.597 277.092H516.642L503.02 374.562H517.931L520.508 352.841H535.142L537.719 374.562H568.737V315.381H569.197L588.341 374.562H602.331V277H587.421ZM522.809 338.667L528.331 291.91H528.791L533.854 338.667H522.809Z" fill="#67E8F9"/>
</svg>
