<svg width="652" height="652" viewBox="0 0 652 652" fill="none" xmlns="http://www.w3.org/2000/svg">
<path fill-rule="evenodd" clip-rule="evenodd" d="M44.2924 442.982H26V446.531H127.291V382.645H124.288C124.288 382.645 124.288 419.502 112.002 431.515C101.627 441.89 90.706 442.709 72.9596 442.709V325.037C72.9596 325.037 85.2455 324.218 91.252 330.225C100.535 339.507 101.627 351.52 101.627 368.174H104.903V278.078H101.627C101.627 294.732 100.808 306.745 91.252 316.027C85.2455 322.034 72.9596 321.215 72.9596 321.215V209.549C90.706 209.549 99.1696 210.641 109.544 220.743C121.557 232.756 121.83 269.614 121.83 269.614H124.834V206H26V209.549H44.2924V442.982Z" fill="#67E8F9"/>
<path fill-rule="evenodd" clip-rule="evenodd" d="M242.233 209.549V442.982C259.979 442.982 270.9 441.89 281.275 431.788C293.288 419.775 293.561 382.918 293.561 382.918H296.564V446.804H195.273V443.255H213.566V209.276H195.273V206H258.887V209.549H242.233Z" fill="#67E8F9"/>
<path fill-rule="evenodd" clip-rule="evenodd" d="M404.953 209.549V442.982C422.699 442.982 433.62 441.89 443.995 431.788C456.008 419.775 456.281 382.918 456.281 382.918H459.284V446.804H357.993V443.255H376.286V209.276H357.993V206H421.607V209.549H404.953Z" fill="#67E8F9"/>
<path fill-rule="evenodd" clip-rule="evenodd" d="M543.101 442.982H524.809V446.531H626.099V382.645H623.096C623.096 382.645 623.096 419.502 610.81 431.515C600.435 441.89 589.515 442.709 571.768 442.709V325.037C571.768 325.037 584.054 324.218 590.061 330.225C599.343 339.507 600.435 351.52 600.435 368.174H603.712V278.078H600.435C600.435 294.732 599.616 306.745 590.061 316.027C584.054 322.034 571.768 321.215 571.768 321.215V209.549C589.515 209.549 597.978 210.641 608.353 220.743C620.366 232.756 620.639 269.614 620.639 269.614H623.642V206H524.809V209.549H543.101V442.982Z" fill="#67E8F9"/>
</svg>
