<svg width="601" height="145" viewBox="0 0 601 145" fill="none" xmlns="http://www.w3.org/2000/svg">
<path d="M159.4 20C143.9 5.60002 127.8 2.60001 108.5 2.60001H73.8V140.3H108.5C125.5 140.3 143.5 138.1 160.1 122C173.7 108.9 181.2 91 181.2 71.6C181.3 51.6 173.5 33.2 159.4 20ZM172.2 71.6C172.2 88 165.8 103.5 154.2 115.1C142.7 126.5 129.1 131.4 108.7 131.4H82.9V11.5H108.7C128.6 11.5 141.4 15.8 152.9 26.2C165.3 37.7 172.2 53.9 172.2 71.6ZM557.9 74.1C561.1 73.7 564.5 72.8 569 70.6C581.3 64.7 588.3 52.8 588.3 37.8C588.3 25.9 583.3 16 573.4 8.59999C565.3 2.49999 555.8 2.60001 544.7 2.60001H541.3H515.6V140.3H524.7V74.3H546.9C548.3 76.3 592.9 141.4 592.9 141.4L600.1 135.6L557.9 74.1ZM579.3 37.4C579.3 48.8 574.3 57.8 565.2 62.7C559.9 65.5 553 65.5 546.8 65.4H545H524.8V11.5H543.6H545.6C553 11.5 562.1 11.4 568.1 15.7C575.3 20.8 579.3 28.5 579.3 37.4ZM187.3 2.3V140.6H251.9V131H197V73.3H250.5V63.7H197V11.8H251.9V2.3H187.3ZM364.6 123.5C353.7 130.8 340.6 135.2 329.4 135.2C314.2 135.2 297 127.8 284.5 115.9C272.6 104.5 265.8 88.9 265.8 73C265.8 38.6 294.9 9.50002 329.4 9.50002C343.5 9.50002 357.3 14.5 368.3 23.7L369.8 25L376.7 19.1L374.6 17.3C362.3 6.6 345.9 0.5 329.7 0.5C310.4 0.5 292.2 7.99999 278.3 21.6C264.3 35.3 256.6 53.4 256.6 72.6C256.6 111.4 290 144.2 329.5 144.2C343.9 144.2 357.9 139.8 370.2 131.4L372.2 130L366.4 122.3L364.6 123.5ZM437.2 0C397.9 0 364.7 33.2 364.7 72.5C364.7 91.5 372.3 109.5 386.2 123.2C400 136.8 418.1 144.3 437.2 144.3C456.3 144.3 474.4 136.8 488.2 123.2C502.1 109.5 509.7 91.5 509.7 72.5C509.7 33.2 476.5 0 437.2 0ZM392.6 116.7C380.6 104.8 374 89.1 374 72.5C374 38.1 402.9 9.00002 437.2 9.00002C471.6 9.00002 500.6 38.1 500.6 72.5C500.6 106.4 471.6 135.1 437.2 135.1C420.5 135.2 404.6 128.6 392.6 116.7ZM47.4 114.7V115.8H47.6C59.2 115.8 63.3 121.6 63.3 127.1V129.5H32.3V128.6C32.3 124.6 36.5 122.2 43.6 122.2H43.8V121.1H19.2V122.2H19.4C25.2 122.2 31.1 124.2 31.1 128.6V129.5H1.2V126.4C1.2 121.6 5.1 115.9 16 115.9H16.2V114.8H0.1V140.3H1.3V136.1H63.4V140.3H64.6V114.7H47.4ZM47.3 76.2V77.4H47.5C57.6 77.6 63.3 81.6 63.3 88.3V91.2H1.2V86.4H0V102.7H1.2V97.9H63.3V102.7H64.5V76.2H47.3ZM47.3 38.6V39.8H47.5C57.6 40 63.3 44 63.3 50.7V53.6H1.2V48.8H0V65.1H1.2V60.3H63.3V65.1H64.5V38.6H47.3ZM64.3 2.60001H47.4V3.7H47.6C59.2 3.7 63.3 9.50002 63.3 15V17.4H32.3V16.5C32.3 12.5 36.5 10.1 43.6 10.1H43.8V9.00002H19.2V10.1H19.4C25.2 10.1 31.1 12.1 31.1 16.5V17.4H1.2V14.3C1.2 9.5 5.1 3.8 16 3.8H16.2V2.7H0.1V28.2H1.3V24H63.4V28.2H64.6V2.60001C64.5 2.60001 64.3 2.60001 64.3 2.60001ZM527.4 135.4C527.4 133.6 528.9 132.1 530.7 132.1C532.5 132.1 534 133.6 534 135.4C534 137.2 532.5 138.7 530.7 138.7C528.9 138.7 527.4 137.2 527.4 135.4ZM533.6 135.4C533.6 133.8 532.3 132.5 530.8 132.5C529.2 132.5 527.9 133.8 527.9 135.4C527.9 137 529.2 138.3 530.8 138.3C532.3 138.3 533.6 137 533.6 135.4ZM532.3 137.2H531.8L530.8 135.5H529.9V137.2H529.5V133.6H531.1C532 133.6 532.4 134 532.4 134.6C532.4 135.3 531.9 135.6 531.3 135.6L532.3 137.2ZM530.6 135.2C531.1 135.2 531.9 135.3 531.9 134.6C531.9 134.1 531.4 134.1 530.9 134.1H529.9V135.2H530.6Z" fill="white"/>
</svg>
