<svg width="652" height="652" viewBox="0 0 652 652" fill="none" xmlns="http://www.w3.org/2000/svg">
<path d="M179.5 268.7C164 254.3 147.9 251.3 128.6 251.3H93.8996V389H128.6C145.6 389 163.6 386.8 180.2 370.7C193.8 357.6 201.3 339.7 201.3 320.3C201.4 300.3 193.6 281.9 179.5 268.7ZM192.3 320.3C192.3 336.7 185.9 352.2 174.3 363.8C162.8 375.2 149.2 380.1 128.8 380.1H103V260.2H128.8C148.7 260.2 161.5 264.5 173 274.9C185.4 286.4 192.3 302.6 192.3 320.3ZM578 322.8C581.2 322.4 584.6 321.5 589.1 319.3C601.4 313.4 608.4 301.5 608.4 286.5C608.4 274.6 603.4 264.7 593.5 257.3C585.4 251.2 575.9 251.3 564.8 251.3H561.4H535.7V389H544.8V323H567C568.4 325 613 390.1 613 390.1L620.2 384.3L578 322.8ZM599.4 286.1C599.4 297.5 594.4 306.5 585.3 311.4C580 314.2 573.1 314.2 566.9 314.1H565.1H544.9V260.2H563.7H565.7C573.1 260.2 582.2 260.1 588.2 264.4C595.4 269.5 599.4 277.2 599.4 286.1ZM207.4 251V389.3H272V379.7H217.1V322H270.6V312.4H217.1V260.5H272V251H207.4ZM384.7 372.2C373.8 379.5 360.7 383.9 349.5 383.9C334.3 383.9 317.1 376.5 304.6 364.6C292.7 353.2 285.9 337.6 285.9 321.7C285.9 287.3 315 258.2 349.5 258.2C363.6 258.2 377.4 263.2 388.4 272.4L389.9 273.7L396.8 267.8L394.7 266C382.4 255.3 366 249.2 349.8 249.2C330.5 249.2 312.3 256.7 298.4 270.3C284.4 284 276.7 302.1 276.7 321.3C276.7 360.1 310.1 392.9 349.6 392.9C364 392.9 378 388.5 390.3 380.1L392.3 378.7L386.5 371L384.7 372.2ZM457.3 248.7C418 248.7 384.8 281.9 384.8 321.2C384.8 340.2 392.4 358.2 406.3 371.9C420.1 385.5 438.2 393 457.3 393C476.4 393 494.5 385.5 508.3 371.9C522.2 358.2 529.8 340.2 529.8 321.2C529.8 281.9 496.6 248.7 457.3 248.7ZM412.7 365.4C400.7 353.5 394.1 337.8 394.1 321.2C394.1 286.8 423 257.7 457.3 257.7C491.7 257.7 520.7 286.8 520.7 321.2C520.7 355.1 491.7 383.8 457.3 383.8C440.6 383.9 424.7 377.3 412.7 365.4ZM67.4996 363.4V364.5H67.6996C79.2996 364.5 83.3996 370.3 83.3996 375.8V378.2H52.3996V377.3C52.3996 373.3 56.5996 370.9 63.6996 370.9H63.8996V369.8H39.2996V370.9H39.4996C45.2996 370.9 51.1996 372.9 51.1996 377.3V378.2H21.2996V375.1C21.2996 370.3 25.1996 364.6 36.0996 364.6H36.2996V363.5H20.1996V389H21.3996V384.8H83.4996V389H84.6996V363.4H67.4996ZM67.3996 324.9V326.1H67.5996C77.6996 326.3 83.3996 330.3 83.3996 337V339.9H21.2996V335.1H20.0996V351.4H21.2996V346.6H83.3996V351.4H84.5996V324.9H67.3996ZM67.3996 287.3V288.5H67.5996C77.6996 288.7 83.3996 292.7 83.3996 299.4V302.3H21.2996V297.5H20.0996V313.8H21.2996V309H83.3996V313.8H84.5996V287.3H67.3996ZM84.3996 251.3H67.4996V252.4H67.6996C79.2996 252.4 83.3996 258.2 83.3996 263.7V266.1H52.3996V265.2C52.3996 261.2 56.5996 258.8 63.6996 258.8H63.8996V257.7H39.2996V258.8H39.4996C45.2996 258.8 51.1996 260.8 51.1996 265.2V266.1H21.2996V263C21.2996 258.2 25.1996 252.5 36.0996 252.5H36.2996V251.4H20.1996V276.9H21.3996V272.7H83.4996V276.9H84.6996V251.3C84.5996 251.3 84.3996 251.3 84.3996 251.3ZM547.5 384.1C547.5 382.3 549 380.8 550.8 380.8C552.6 380.8 554.1 382.3 554.1 384.1C554.1 385.9 552.6 387.4 550.8 387.4C549 387.4 547.5 385.9 547.5 384.1ZM553.7 384.1C553.7 382.5 552.4 381.2 550.9 381.2C549.3 381.2 548 382.5 548 384.1C548 385.7 549.3 387 550.9 387C552.4 387 553.7 385.7 553.7 384.1ZM552.4 385.9H551.9L550.9 384.2H550V385.9H549.6V382.3H551.2C552.1 382.3 552.5 382.7 552.5 383.3C552.5 384 552 384.3 551.4 384.3L552.4 385.9ZM550.7 383.9C551.2 383.9 552 384 552 383.3C552 382.8 551.5 382.8 551 382.8H550V383.9H550.7Z" fill="#67E8F9"/>
</svg>
