<svg width="601" height="241" viewBox="0 0 601 241" fill="none" xmlns="http://www.w3.org/2000/svg">
<path fill-rule="evenodd" clip-rule="evenodd" d="M18.2924 236.982H0V240.531H101.291V176.645H98.2875C98.2875 176.645 98.2875 213.502 86.0016 225.515C75.6268 235.89 64.706 236.709 46.9596 236.709V119.037C46.9596 119.037 59.2455 118.218 65.252 124.225C74.5347 133.507 75.6268 145.52 75.6268 162.174H78.903V72.0775H75.6268C75.6268 88.7318 74.8077 100.745 65.252 110.027C59.2455 116.034 46.9596 115.215 46.9596 115.215V3.54927C64.706 3.54927 73.1696 4.64136 83.5444 14.7431C95.5573 26.7561 95.8303 63.6139 95.8303 63.6139H98.8336V0H0V3.54927H18.2924V236.982Z" fill="white"/>
<path fill-rule="evenodd" clip-rule="evenodd" d="M216.233 3.54927V236.982C233.979 236.982 244.9 235.89 255.275 225.788C267.288 213.775 267.561 176.918 267.561 176.918H270.564V240.804H169.273V237.255H187.566V3.27625H169.273V0H232.887V3.54927H216.233Z" fill="white"/>
<path fill-rule="evenodd" clip-rule="evenodd" d="M378.953 3.54927V236.982C396.699 236.982 407.62 235.89 417.995 225.788C430.008 213.775 430.281 176.918 430.281 176.918H433.284V240.804H331.993V237.255H350.286V3.27625H331.993V0H395.607V3.54927H378.953Z" fill="white"/>
<path fill-rule="evenodd" clip-rule="evenodd" d="M517.101 236.982H498.809V240.531H600.099V176.645H597.096C597.096 176.645 597.096 213.502 584.81 225.515C574.435 235.89 563.515 236.709 545.768 236.709V119.037C545.768 119.037 558.054 118.218 564.061 124.225C573.343 133.507 574.435 145.52 574.435 162.174H577.712V72.0775H574.435C574.435 88.7318 573.616 100.745 564.061 110.027C558.054 116.034 545.768 115.215 545.768 115.215V3.54927C563.515 3.54927 571.978 4.64136 582.353 14.7431C594.366 26.7561 594.639 63.6139 594.639 63.6139H597.642V0H498.809V3.54927H517.101V236.982Z" fill="white"/>
</svg>
