<svg width="652" height="652" viewBox="0 0 652 652" fill="none" xmlns="http://www.w3.org/2000/svg">
<path d="M581.799 334.35C581.799 327.941 603.901 325.796 603.901 325.796L603.59 319.386C600.367 319.298 587.784 319.76 587.784 316.393C587.784 311.998 607.036 310.927 613.784 310.689L612.399 300.432C600.771 300.465 548.524 300.604 546.386 314.744C545.231 322.379 560.274 324.182 560.274 324.182L560.269 324.541C560.269 324.541 540.573 328.183 540.573 337.717C540.573 357.169 608.514 351.722 626.1 346.882C626.1 346.882 624.397 338.242 623.622 337.841C622.92 337.479 608.658 339.587 597.341 339.284C588.136 339.037 581.799 337.569 581.799 334.35Z" fill="#67E8F9"/>
<path d="M440.243 291.565C440.243 297.084 434.19 300.987 423.596 300.987C413.187 300.987 406.938 297.168 406.938 291.565C406.938 285.312 416.1 282 423.588 282C430.863 282 440.243 285.23 440.243 291.565Z" fill="#67E8F9"/>
<path d="M536.453 337.421C535.611 337.141 529.484 338.519 522.627 336.142C511.654 332.339 509.971 317.625 522.997 309.219L510.807 298.896C489.3 307.184 484.876 307.775 482.863 308.235C481.864 305.311 477.196 300.399 467.297 300.989C461.912 301.31 453.91 304.332 451.596 309.838C450.036 313.547 450.981 317.712 454.597 320.558C459.809 324.661 469.759 323.639 469.759 323.639C466.627 336.764 439.342 345.743 439.342 331.675V307.537H406.938V335.57C406.938 349.574 424.124 353.197 440.999 352.083C464.609 350.525 477.89 336.975 482.731 322.348L494.25 319.689C494.25 319.689 478.485 340.235 498.156 349.579C509.379 354.91 530.015 350.801 538.31 346.381C538.31 346.381 536.933 337.581 536.453 337.421ZM462.427 312.082C462.639 308.58 471.346 307.681 471.876 311.733C471.876 311.733 462.196 315.864 462.427 312.082Z" fill="#67E8F9"/>
<path d="M403.363 339.802C403.067 339.49 397.502 340.877 393.47 339.893C389.019 338.805 388.73 335.474 388.73 331.044L388.732 307.345C388.732 307.345 355.362 307.352 355.36 307.352V329.718C355.36 332.355 355.582 338.777 346.22 338.777C342.01 338.777 337.206 338.423 337.206 332.355V307.345H304.023L304.052 335.841C304.052 352.086 331.303 357.055 359.302 346.448C359.302 346.448 372.407 356.807 405.178 349.19C405.178 349.19 403.747 340.206 403.363 339.802Z" fill="#67E8F9"/>
<path d="M294.413 365.352L294.4 306.918L264.032 306.923C264.032 306.923 265.061 328.002 263.464 332.097C260.749 341.003 238.867 339.738 238.873 329.356C238.88 317.286 261.157 319.361 261.157 319.361L258.926 306.896C258.926 306.896 207.422 302.103 204.955 329.634C204.403 348.823 238.586 356.822 263.865 347.376L263.853 370.165L294.413 365.352Z" fill="#67E8F9"/>
<path d="M195.556 337.315C198.61 334.212 198.427 330.438 195.835 326.327C192.009 320.258 181.441 316.705 178.915 311.888C177.806 309.771 177.849 307.257 179.497 304.162L178.928 301.62L143.268 305.559C141.156 310.315 143.31 314.024 143.465 314.46C117.706 342.045 75.9315 342.295 74.8194 332.573C73.7765 323.455 102.338 321.44 102.338 321.44L101.778 312.351C101.778 312.351 82.5403 313.864 82.2516 307.943C81.9536 301.837 99.9498 299.863 110.384 299.743L107.721 285.085C73.9362 284.716 42.3568 292.159 39.4552 304.922C38.5842 308.751 41.141 315.485 55.0767 318.294V318.784C55.0767 318.784 25.8021 323.405 26.001 336.108C26.1777 347.408 51.4286 352.427 69.2597 352.552C105.39 352.804 124.438 340.83 124.438 340.83C119.389 354.642 158.949 356.311 186.413 346.397C187.721 345.925 198.275 350.419 204.684 353.252C204.684 353.252 208.784 343.432 208.235 342.095C207.736 340.88 195.556 337.315 195.556 337.315ZM160.259 340.988C156.703 345.369 142.779 345.326 143.756 342.459C144.807 339.373 158.62 340.146 160.259 340.988ZM133.464 336.297C133.464 336.297 141.835 330.997 150.438 323.453C150.438 323.453 157.849 327.783 161.24 332.93C161.24 332.93 149.425 330.686 133.464 336.297Z" fill="#67E8F9"/>
</svg>
