<svg width="601" height="89" viewBox="0 0 601 89" fill="none" xmlns="http://www.w3.org/2000/svg">
<path d="M555.799 52.3497C555.799 45.9413 577.901 43.7962 577.901 43.7962L577.59 37.3863C574.367 37.298 561.784 37.7604 561.784 34.3934C561.784 29.998 581.036 28.9266 587.784 28.6885L586.399 18.4324C574.771 18.4646 522.524 18.6044 520.386 32.7444C519.231 40.3785 534.274 42.1819 534.274 42.1819L534.269 42.5413C534.269 42.5413 514.573 46.1825 514.573 55.7167C514.573 75.1691 582.514 69.7223 600.1 64.8814C600.1 64.8814 598.397 56.242 597.622 55.8411C596.92 55.4786 582.658 57.5868 571.341 57.2842C562.136 57.0369 555.799 55.5684 555.799 52.3497Z" fill="white"/>
<path d="M414.243 9.56492C414.243 15.0839 408.189 18.987 397.595 18.987C387.187 18.987 380.938 15.1684 380.938 9.56492C380.938 3.31247 390.099 0 397.587 0C404.863 0 414.243 3.22952 414.243 9.56492Z" fill="white"/>
<path d="M510.453 55.4211C509.611 55.1408 503.484 56.5186 496.627 54.1424C485.654 50.3391 483.97 35.6246 496.997 27.2187L484.806 16.8965C463.3 25.1842 458.875 25.7748 456.862 26.2348C455.863 23.311 451.196 18.3995 441.296 18.9893C435.912 19.3104 427.91 22.3325 425.596 27.8377C424.036 31.5472 424.98 35.7122 428.596 38.5585C433.809 42.6612 443.758 41.639 443.758 41.639C440.626 54.7645 413.342 63.7426 413.342 49.6748V25.5375H380.938V53.5702C380.938 67.5743 398.123 71.197 414.998 70.0834C438.609 68.5251 451.889 54.9749 456.73 40.348L468.249 37.6891C468.249 37.6891 452.485 58.2352 472.155 67.5789C483.378 72.9097 504.015 68.8008 512.31 64.3809C512.31 64.3809 510.933 55.5809 510.453 55.4211ZM436.426 30.0818C436.639 26.5797 445.346 25.6811 445.875 29.7332C445.875 29.7332 436.196 33.8636 436.426 30.0818Z" fill="white"/>
<path d="M377.363 57.802C377.067 57.4902 371.502 58.8772 367.47 57.8926C363.019 56.8051 362.73 53.4742 362.73 49.0443L362.732 25.3447C362.732 25.3447 329.362 25.3516 329.36 25.3516V47.7179C329.36 50.3553 329.582 56.7767 320.22 56.7767C316.01 56.7767 311.206 56.4227 311.206 50.3553V25.3447H278.023L278.052 53.8406C278.052 70.0865 305.303 75.0548 333.302 64.4485C333.302 64.4485 346.407 74.8075 379.178 67.1903C379.178 67.1903 377.747 58.206 377.363 57.802Z" fill="white"/>
<path d="M268.413 83.3519L268.4 24.9179L238.033 24.9225C238.033 24.9225 239.061 46.0016 237.464 50.0974C234.749 59.0034 212.868 57.7385 212.873 47.3556C212.881 35.2862 235.157 37.3614 235.157 37.3614L232.927 24.8964C232.927 24.8964 181.423 20.1032 178.956 47.6336C178.404 66.8226 212.587 74.8215 237.865 65.3764L237.854 88.1651L268.413 83.3519Z" fill="white"/>
<path d="M169.556 55.3151C172.61 52.2123 172.427 48.4383 169.835 44.3271C166.009 38.2582 155.441 34.7045 152.915 29.8875C151.806 27.7708 151.849 25.2571 153.497 22.162L152.928 19.6199L117.268 23.559C115.156 28.3146 117.31 32.0241 117.465 32.4604C91.7057 60.0453 49.9315 60.295 48.8194 50.5726C47.7765 41.4547 76.3376 39.4401 76.3376 39.4401L75.7785 30.3514C75.7785 30.3514 56.5403 31.8644 56.2516 25.943C55.9536 19.8372 73.9498 17.8634 84.3841 17.7428L81.7206 3.08515C47.9362 2.71574 16.3568 10.1594 13.4552 22.9223C12.5842 26.7509 15.141 33.4849 29.0767 36.2943V36.7836C29.0767 36.7836 -0.197908 41.4047 0.00100914 54.1078C0.177654 65.4077 25.4286 70.4267 43.2597 70.5519C79.3904 70.8038 98.4381 58.8296 98.4381 58.8296C93.3891 72.6424 132.949 74.3105 160.413 64.3969C161.721 63.9254 172.275 68.4191 178.684 71.2523C178.684 71.2523 182.784 61.4324 182.235 60.0953C181.736 58.8795 169.556 55.3151 169.556 55.3151ZM134.259 58.9878C130.703 63.3686 116.779 63.3263 117.756 60.4585C118.807 57.3734 132.62 58.146 134.259 58.9878ZM107.464 54.2967C107.464 54.2967 115.835 48.9974 124.438 41.4531C124.438 41.4531 131.849 45.7825 135.24 50.9297C135.24 50.9297 123.425 48.6856 107.464 54.2967Z" fill="white"/>
</svg>
