<svg width="601" height="147" viewBox="0 0 601 147" fill="none" xmlns="http://www.w3.org/2000/svg">
<path fill-rule="evenodd" clip-rule="evenodd" d="M107.582 136.478C106.437 141.063 106.279 141.525 105.118 141.525H92.0608V142.422H121.633V141.525H108.097C107.222 141.525 107.368 140.903 108.433 136.712L117.529 101.393H153.538L164.531 141.525H149.903V142.422H199.111V141.525H183.813L143.006 0H142.758L107.582 136.478ZM134.938 33.7483L153.258 100.5H117.787L134.938 33.7483ZM531.413 71.8104H542.67C552.643 71.8104 567.35 76.1052 567.35 93.5554V125.156C567.35 138.086 574.486 146.229 587.074 146.229C600.304 146.229 600.1 132.87 600.1 123.232V113.076H599.205V123.232C599.205 134.194 597.905 143.714 591.451 143.714C585.732 143.714 584.502 140.167 584.502 125.294V93.5554C584.502 78.8697 572.598 73.4872 554.215 71.357C577.111 68.6336 585.732 54.0123 585.732 37.8444C585.732 13.9295 574.689 3.87691 546.249 3.87691L501.166 3.86732V4.76599H513.004C513.859 4.76599 514.263 5.00573 514.263 5.49068V140.795C514.263 141.282 513.859 141.525 513.004 141.525H501.166V142.422H542.624V141.525H532.666C531.81 141.525 531.413 141.282 531.413 140.795V71.8104ZM531.413 4.77421H543.564C562.281 4.77421 567.575 19.0105 567.575 37.8444C567.575 55.4781 562.281 70.9131 543.564 70.9131H531.413V4.77421ZM229.71 140.818C229.563 141.14 229.729 141.525 230.421 141.525L262.723 141.533C272.667 141.533 285.503 126.826 285.503 79.4327V74.4982H286.402V142.428H209.278L267.707 5.46603C267.849 5.1482 267.682 4.76599 266.991 4.76599L232.697 4.77421C223.695 4.77421 210.623 21.2079 210.623 66.8773V71.8104H209.726V3.87691H288.197L229.71 140.818ZM38.7636 4.77421C57.4851 4.77421 65.1074 19.0105 65.1074 37.8444C65.1074 55.4781 57.4851 69.5665 38.7636 69.5665H30.2453V4.77421H38.7636ZM0 3.86732V4.76599H11.8389C12.6952 4.76599 13.0952 5.00573 13.0952 5.49068V140.795C13.0952 141.282 12.6952 141.525 11.8389 141.525H0V142.422L44.146 142.428C72.5803 142.428 87.751 130.583 87.751 106.675C87.751 90.1182 78.7848 73.2667 50.482 69.9103C74.5243 67.6623 82.8192 52.5615 82.8192 37.8444C82.8192 16.3214 69.8912 3.87691 41.4555 3.87691L0 3.86732ZM38.7636 70.4638C59.8742 70.4638 68.2472 84.8508 68.2472 106.675C68.2472 125.504 60.7729 141.533 43.2474 141.533L31.5016 141.525C30.6454 141.525 30.2453 141.282 30.2453 140.795V70.4528L38.7636 70.4638ZM311.161 136.478C310.01 141.063 309.852 141.525 308.693 141.525H295.637V142.422H325.212V141.525H311.672C310.802 141.525 310.944 140.903 312.014 136.712L321.106 101.393H357.115L368.112 141.525H353.478V142.422H402.69V141.525H387.386L346.582 0H346.331L311.161 136.478ZM338.517 33.7483L356.831 100.5H321.36L338.517 33.7483Z" fill="white"/>
<path fill-rule="evenodd" clip-rule="evenodd" d="M409.379 136.478C408.23 141.063 408.078 141.525 406.918 141.525H393.858V142.422H423.432V141.525H409.893C409.023 141.525 409.167 140.903 410.233 136.712L419.329 101.393H455.337L466.332 141.525H451.699V142.422H500.91V141.525H485.612L444.807 0H444.557L409.379 136.478ZM436.74 33.7483L455.057 100.5H419.581L436.74 33.7483ZM377.735 18.2078C377.735 18.2626 377.786 18.2831 377.882 18.2831H379.881V18.6023H373.057V18.2831H374.839C374.939 18.2831 374.983 18.2626 374.983 18.2078V11.2992H368.466V18.2078C368.466 18.2626 368.512 18.2831 368.609 18.2831H370.391V18.6023H363.57V18.2831H365.569C365.666 18.2831 365.711 18.2626 365.711 18.2078V4.65092C365.711 4.6016 365.666 4.57831 365.569 4.57831H363.57V4.25775H370.391V4.57831H368.609C368.512 4.57831 368.466 4.6016 368.466 4.65092V10.9827H374.983V4.65092C374.983 4.6016 374.939 4.57831 374.839 4.57831H373.057V4.25775H379.881V4.57831H377.882C377.786 4.57831 377.735 4.6016 377.735 4.65092V18.2078ZM396.682 12.3198C396.054 12.3198 395.634 12.0294 395.634 11.5403C395.634 11.0978 395.899 11.1129 395.899 10.7882C395.899 10.4594 395.688 10.3087 395.35 10.3087C395.001 10.3087 394.377 10.4252 393.905 11.8609V18.2078C393.905 18.2626 393.949 18.2831 394.047 18.2831H395.272V18.6023H390.469V18.2831H391.69C391.788 18.2831 391.832 18.2626 391.832 18.2078V10.3731C391.832 10.3252 391.788 10.2978 391.69 10.2978H390.469V9.97858H393.844L393.905 10.0402V11.3787C394.265 10.2635 395.043 9.80323 395.958 9.80323C397.072 9.80323 397.795 10.3882 397.795 11.2937C397.795 11.865 397.354 12.3198 396.682 12.3198ZM414.696 18.7763C416.259 18.7763 417.517 18.0187 418.357 16.8584L418.114 16.6638C417.329 17.7749 416.277 18.4626 414.696 18.4626C414.118 18.4626 413.652 18.353 413.254 17.9995C412.596 17.4091 412.391 16.7173 412.391 14.2925C412.391 14.113 412.392 14.0637 412.396 13.8993H418.54L418.6 13.8432C418.6 12.2061 417.472 9.80323 414.696 9.80323C412.134 9.80323 410.21 11.8157 410.21 14.2925C410.21 16.7652 412.134 18.7763 414.696 18.7763ZM415.836 10.5868C416.307 11.1184 416.461 11.9403 416.498 13.5801H412.402C412.452 11.9403 412.659 11.1184 413.254 10.5868C413.652 10.232 414.118 10.1224 414.696 10.1224C415.196 10.1224 415.519 10.232 415.836 10.5868ZM384.127 18.3817C385.226 18.3817 385.939 17.5995 385.939 16.8515V13.8664C385.428 14.161 384.686 14.161 384.032 14.2788C383.296 14.413 382.507 14.798 382.507 16.6556C382.507 18.0735 383.436 18.3817 384.127 18.3817ZM381.548 11.5567C381.548 10.8403 382.451 9.80323 384.195 9.80323C386.75 9.80323 388.014 10.9293 388.014 13.4582V17.5721C388.014 18.0557 388.246 18.2557 388.583 18.2557C388.977 18.2557 389.294 17.9297 389.378 17.7324L389.588 17.9406C389.459 18.2995 388.804 18.7763 387.972 18.7763C387.026 18.7763 386.195 18.2297 386.048 17.4707C385.747 18.3352 384.919 18.7763 383.729 18.7763C381.755 18.7763 380.486 18.0886 380.486 16.6556C380.486 14.5405 382.745 14.0486 383.614 13.9788C384.838 13.876 385.939 13.7952 385.939 13.3623V12.1828C385.939 10.7389 385.308 10.1224 384.195 10.1224C383.637 10.1224 383.29 10.3772 383.29 10.9745C383.29 11.3143 383.467 11.4184 383.467 11.7499C383.467 12.1212 383.173 12.4746 382.474 12.4746C381.81 12.4746 381.548 12.0143 381.548 11.5567ZM405.589 10.5772C405.218 10.232 404.715 10.1224 404.178 10.1224C403.435 10.1224 402.753 10.6129 402.28 11.1663V17.1954C402.565 17.9132 403.391 18.4626 404.178 18.4626C404.715 18.4626 405.218 18.3557 405.589 18.0064C406.201 17.4269 406.614 16.4173 406.614 14.3446C406.614 12.2705 406.201 11.1554 405.589 10.5772ZM408.722 14.3446C408.722 16.5844 406.819 18.7763 404.178 18.7763C403.37 18.7763 402.753 18.2721 402.28 17.7844V24.4656C402.28 24.5122 402.33 24.5355 402.426 24.5355H403.646V24.8547H398.847V24.5355H400.067C400.164 24.5355 400.209 24.5122 400.209 24.4656V10.3731C400.209 10.3252 400.164 10.2978 400.067 10.2978H398.847V9.97858H402.222L402.28 10.0402V10.8088C402.753 10.317 403.37 9.80323 404.178 9.80323C406.819 9.80323 408.722 12.102 408.722 14.3446ZM434.92 10.0443C435.148 10.0443 435.274 9.95118 435.299 9.86351H435.645V12.0006H435.299C435.299 10.7581 434.185 10.1224 433.13 10.1224C432.038 10.1224 431.511 10.6129 431.511 11.3869C431.511 12.3828 432.226 12.8897 433.849 13.3445C435.549 13.8226 436.668 14.6528 436.668 15.9487C436.668 17.5885 435.344 18.7763 433.224 18.7763C431.966 18.7763 431.42 18.1899 430.768 18.1899C430.623 18.185 430.479 18.2244 430.357 18.303C430.234 18.3815 430.138 18.4954 430.082 18.6297H429.731L429.852 15.7871H430.202C430.144 17.2776 431.538 18.4626 433.224 18.4626C434.499 18.4626 435.22 17.879 435.22 16.7926C435.22 15.709 434.367 15.2775 432.809 14.8021C431.286 14.3418 430.226 13.7226 430.226 12.3828C430.226 10.7951 431.764 9.80323 433.13 9.80323C434.02 9.80323 434.104 10.0443 434.92 10.0443ZM428.59 7.0483C428.59 6.47019 429.08 5.99893 429.686 5.99893C430.342 5.99893 430.828 6.47567 430.828 7.17433C430.828 8.20589 429.897 9.41691 428.619 10.1854L428.415 9.95529C429.338 9.42102 430.002 8.76208 430.396 7.82642C430.226 8.0141 429.99 8.1004 429.686 8.1004C429.08 8.1004 428.59 7.63189 428.59 7.0483ZM425.819 12.3198C425.194 12.3198 424.771 12.0294 424.771 11.5403C424.771 11.0978 425.038 11.1129 425.038 10.7882C425.038 10.4594 424.824 10.3087 424.484 10.3087C424.136 10.3087 423.512 10.4252 423.042 11.8609V18.2078C423.042 18.2626 423.082 18.2831 423.18 18.2831H424.403V18.6023H419.601V18.2831H420.827C420.922 18.2831 420.969 18.2626 420.969 18.2078V10.3731C420.969 10.3252 420.922 10.2978 420.827 10.2978H419.601V9.97858H422.979L423.042 10.0402V11.3787C423.405 10.2635 424.179 9.80323 425.101 9.80323C426.204 9.80323 426.937 10.3882 426.937 11.2937C426.937 11.865 426.487 12.3198 425.819 12.3198Z" fill="white"/>
</svg>
