<svg width="652" height="652" viewBox="0 0 652 652" fill="none" xmlns="http://www.w3.org/2000/svg">
<path fill-rule="evenodd" clip-rule="evenodd" d="M133.582 389.478C132.437 394.063 132.279 394.525 131.118 394.525H118.061V395.422H147.633V394.525H134.097C133.222 394.525 133.368 393.903 134.433 389.712L143.529 354.393H179.538L190.531 394.525H175.903V395.422H225.111V394.525H209.813L169.006 253H168.758L133.582 389.478ZM160.938 286.748L179.258 353.5H143.787L160.938 286.748ZM557.413 324.81H568.67C578.643 324.81 593.35 329.105 593.35 346.555V378.156C593.35 391.086 600.486 399.229 613.074 399.229C626.304 399.229 626.1 385.87 626.1 376.232V366.076H625.205V376.232C625.205 387.194 623.905 396.714 617.451 396.714C611.732 396.714 610.502 393.167 610.502 378.294V346.555C610.502 331.87 598.598 326.487 580.215 324.357C603.111 321.634 611.732 307.012 611.732 290.844C611.732 266.929 600.689 256.877 572.249 256.877L527.166 256.867V257.766H539.004C539.859 257.766 540.263 258.006 540.263 258.491V393.795C540.263 394.282 539.859 394.525 539.004 394.525H527.166V395.422H568.624V394.525H558.666C557.81 394.525 557.413 394.282 557.413 393.795V324.81ZM557.413 257.774H569.564C588.281 257.774 593.575 272.011 593.575 290.844C593.575 308.478 588.281 323.913 569.564 323.913H557.413V257.774ZM255.71 393.818C255.563 394.14 255.729 394.525 256.421 394.525L288.723 394.533C298.667 394.533 311.503 379.826 311.503 332.433V327.498H312.402V395.428H235.278L293.707 258.466C293.849 258.148 293.682 257.766 292.991 257.766L258.697 257.774C249.695 257.774 236.623 274.208 236.623 319.877V324.81H235.726V256.877H314.197L255.71 393.818ZM64.7636 257.774C83.4851 257.774 91.1074 272.011 91.1074 290.844C91.1074 308.478 83.4851 322.566 64.7636 322.566H56.2453V257.774H64.7636ZM26 256.867V257.766H37.8389C38.6952 257.766 39.0952 258.006 39.0952 258.491V393.795C39.0952 394.282 38.6952 394.525 37.8389 394.525H26V395.422L70.146 395.428C98.5803 395.428 113.751 383.583 113.751 359.675C113.751 343.118 104.785 326.267 76.482 322.91C100.524 320.662 108.819 305.562 108.819 290.844C108.819 269.321 95.8912 256.877 67.4555 256.877L26 256.867ZM64.7636 323.464C85.8742 323.464 94.2472 337.851 94.2472 359.675C94.2472 378.504 86.7729 394.533 69.2474 394.533L57.5016 394.525C56.6454 394.525 56.2453 394.282 56.2453 393.795V323.453L64.7636 323.464ZM337.161 389.478C336.01 394.063 335.852 394.525 334.693 394.525H321.637V395.422H351.212V394.525H337.672C336.802 394.525 336.944 393.903 338.014 389.712L347.106 354.393H383.115L394.112 394.525H379.478V395.422H428.69V394.525H413.386L372.582 253H372.331L337.161 389.478ZM364.517 286.748L382.831 353.5H347.36L364.517 286.748Z" fill="#67E8F9"/>
<path fill-rule="evenodd" clip-rule="evenodd" d="M435.379 389.478C434.23 394.063 434.078 394.525 432.918 394.525H419.858V395.422H449.432V394.525H435.893C435.023 394.525 435.167 393.903 436.233 389.712L445.329 354.393H481.337L492.332 394.525H477.699V395.422H526.91V394.525H511.612L470.807 253H470.557L435.379 389.478ZM462.74 286.748L481.057 353.5H445.581L462.74 286.748ZM403.735 271.208C403.735 271.263 403.786 271.283 403.882 271.283H405.881V271.602H399.057V271.283H400.839C400.939 271.283 400.983 271.263 400.983 271.208V264.299H394.466V271.208C394.466 271.263 394.512 271.283 394.609 271.283H396.391V271.602H389.57V271.283H391.569C391.666 271.283 391.711 271.263 391.711 271.208V257.651C391.711 257.602 391.666 257.578 391.569 257.578H389.57V257.258H396.391V257.578H394.609C394.512 257.578 394.466 257.602 394.466 257.651V263.983H400.983V257.651C400.983 257.602 400.939 257.578 400.839 257.578H399.057V257.258H405.881V257.578H403.882C403.786 257.578 403.735 257.602 403.735 257.651V271.208ZM422.682 265.32C422.054 265.32 421.634 265.029 421.634 264.54C421.634 264.098 421.899 264.113 421.899 263.788C421.899 263.459 421.688 263.309 421.35 263.309C421.001 263.309 420.377 263.425 419.905 264.861V271.208C419.905 271.263 419.949 271.283 420.047 271.283H421.272V271.602H416.469V271.283H417.69C417.788 271.283 417.832 271.263 417.832 271.208V263.373C417.832 263.325 417.788 263.298 417.69 263.298H416.469V262.979H419.844L419.905 263.04V264.379C420.265 263.264 421.043 262.803 421.958 262.803C423.072 262.803 423.795 263.388 423.795 264.294C423.795 264.865 423.354 265.32 422.682 265.32ZM440.696 271.776C442.259 271.776 443.517 271.019 444.357 269.858L444.114 269.664C443.329 270.775 442.277 271.463 440.696 271.463C440.118 271.463 439.652 271.353 439.254 271C438.596 270.409 438.391 269.717 438.391 267.292C438.391 267.113 438.392 267.064 438.396 266.899H444.54L444.6 266.843C444.6 265.206 443.472 262.803 440.696 262.803C438.134 262.803 436.21 264.816 436.21 267.292C436.21 269.765 438.134 271.776 440.696 271.776ZM441.836 263.587C442.307 264.118 442.461 264.94 442.498 266.58H438.402C438.452 264.94 438.659 264.118 439.254 263.587C439.652 263.232 440.118 263.122 440.696 263.122C441.196 263.122 441.519 263.232 441.836 263.587ZM410.127 271.382C411.226 271.382 411.939 270.6 411.939 269.852V266.866C411.428 267.161 410.686 267.161 410.032 267.279C409.296 267.413 408.507 267.798 408.507 269.656C408.507 271.074 409.436 271.382 410.127 271.382ZM407.548 264.557C407.548 263.84 408.451 262.803 410.195 262.803C412.75 262.803 414.014 263.929 414.014 266.458V270.572C414.014 271.056 414.246 271.256 414.583 271.256C414.977 271.256 415.294 270.93 415.378 270.732L415.588 270.941C415.459 271.3 414.804 271.776 413.972 271.776C413.026 271.776 412.195 271.23 412.048 270.471C411.747 271.335 410.919 271.776 409.729 271.776C407.755 271.776 406.486 271.089 406.486 269.656C406.486 267.54 408.745 267.049 409.614 266.979C410.838 266.876 411.939 266.795 411.939 266.362V265.183C411.939 263.739 411.308 263.122 410.195 263.122C409.637 263.122 409.29 263.377 409.29 263.975C409.29 264.314 409.467 264.418 409.467 264.75C409.467 265.121 409.173 265.475 408.474 265.475C407.81 265.475 407.548 265.014 407.548 264.557ZM431.589 263.577C431.218 263.232 430.715 263.122 430.178 263.122C429.435 263.122 428.753 263.613 428.28 264.166V270.195C428.565 270.913 429.391 271.463 430.178 271.463C430.715 271.463 431.218 271.356 431.589 271.006C432.201 270.427 432.614 269.417 432.614 267.345C432.614 265.27 432.201 264.155 431.589 263.577ZM434.722 267.345C434.722 269.584 432.819 271.776 430.178 271.776C429.37 271.776 428.753 271.272 428.28 270.784V277.466C428.28 277.512 428.33 277.535 428.426 277.535H429.646V277.855H424.847V277.535H426.067C426.164 277.535 426.209 277.512 426.209 277.466V263.373C426.209 263.325 426.164 263.298 426.067 263.298H424.847V262.979H428.222L428.28 263.04V263.809C428.753 263.317 429.37 262.803 430.178 262.803C432.819 262.803 434.722 265.102 434.722 267.345ZM460.92 263.044C461.148 263.044 461.274 262.951 461.299 262.864H461.645V265.001H461.299C461.299 263.758 460.185 263.122 459.13 263.122C458.038 263.122 457.511 263.613 457.511 264.387C457.511 265.383 458.226 265.89 459.849 266.345C461.549 266.823 462.668 267.653 462.668 268.949C462.668 270.589 461.344 271.776 459.224 271.776C457.966 271.776 457.42 271.19 456.768 271.19C456.623 271.185 456.479 271.224 456.357 271.303C456.234 271.381 456.138 271.495 456.082 271.63H455.731L455.852 268.787H456.202C456.144 270.278 457.538 271.463 459.224 271.463C460.499 271.463 461.22 270.879 461.22 269.793C461.22 268.709 460.367 268.277 458.809 267.802C457.286 267.342 456.226 266.723 456.226 265.383C456.226 263.795 457.764 262.803 459.13 262.803C460.02 262.803 460.104 263.044 460.92 263.044ZM454.59 260.048C454.59 259.47 455.08 258.999 455.686 258.999C456.342 258.999 456.828 259.476 456.828 260.174C456.828 261.206 455.897 262.417 454.619 263.185L454.415 262.955C455.338 262.421 456.002 261.762 456.396 260.826C456.226 261.014 455.99 261.1 455.686 261.1C455.08 261.1 454.59 260.632 454.59 260.048ZM451.819 265.32C451.194 265.32 450.771 265.029 450.771 264.54C450.771 264.098 451.038 264.113 451.038 263.788C451.038 263.459 450.824 263.309 450.484 263.309C450.136 263.309 449.512 263.425 449.042 264.861V271.208C449.042 271.263 449.082 271.283 449.18 271.283H450.403V271.602H445.601V271.283H446.827C446.922 271.283 446.969 271.263 446.969 271.208V263.373C446.969 263.325 446.922 263.298 446.827 263.298H445.601V262.979H448.979L449.042 263.04V264.379C449.405 263.264 450.179 262.803 451.101 262.803C452.204 262.803 452.936 263.388 452.936 264.294C452.936 264.865 452.487 265.32 451.819 265.32Z" fill="#67E8F9"/>
</svg>
