<svg width="652" height="652" viewBox="0 0 652 652" fill="none" xmlns="http://www.w3.org/2000/svg">
<g clip-path="url(#clip0_21_16)">
<path d="M352.476 373.274H429.916V363.815H365.752V333.547H413.947V323.976H365.752V296.09H429.916V286.666H352.476V373.274Z" fill="#67E8F9"/>
<path d="M392.72 272.665L382.235 284.444L415.149 272.665H392.72Z" fill="#67E8F9"/>
<path d="M559.918 363.815V286.666H547.814V373.274H626.1V363.815H559.918Z" fill="#67E8F9"/>
<path d="M480.095 286.666L436.057 373.274H450.943L462.209 350.857H515.025L526.387 373.274H541.119L497.046 286.666H480.095ZM467.783 340.001L488.534 298.633L509.529 340.001H467.783Z" fill="#67E8F9"/>
<path d="M310.455 337.058C330.296 331.764 332.224 317.001 332.124 311.723C330.939 296.251 320.515 286.666 301.783 286.666H247.197V373.274H259.641V336.943H295.178L321.322 373.274H337.006C337.006 373.274 318.192 348.823 310.455 337.058ZM300.084 326.71H259.641V296.917H301.494C311.13 296.917 316.55 301.415 318.503 307.13C319.795 311.047 318.966 316.189 316.829 319.69C313.332 325.478 306.687 326.71 300.084 326.71Z" fill="#67E8F9"/>
<path d="M172.415 272C137.288 272 113.347 296.767 113.347 326.743C113.347 358.301 139.794 380.579 172.415 380.579C205.015 380.579 231.452 358.619 231.452 326.743C231.452 296.767 207.214 272 172.415 272ZM171.994 369.828C147.691 369.828 127.667 350.299 127.667 326.773C127.667 303.279 146.746 282.814 172.936 282.814C198.477 282.814 217.252 303.279 217.252 326.773C217.252 350.298 196.286 369.828 171.994 369.828Z" fill="#67E8F9"/>
<path d="M82.0063 317.305H90.9853L107.283 286.666H94.1681L82.0063 317.305Z" fill="#67E8F9"/>
<path d="M38.1108 363.815V286.666H26V373.274H104.282V363.815H38.1108Z" fill="#67E8F9"/>
</g>
<defs>
<clipPath id="clip0_21_16">
<rect width="600.1" height="108.579" fill="white" transform="translate(26 272)"/>
</clipPath>
</defs>
</svg>
