<svg width="601" height="88" viewBox="0 0 601 88" fill="none" xmlns="http://www.w3.org/2000/svg">
<g clip-path="url(#clip0_17_6)">
<path d="M131.315 72.5314L126.321 55.3507L124.225 46.096C124.534 46.016 124.282 45.3975 124.27 45.3057C122.495 30.6335 111.167 32.2828 103.814 34.8026C103.814 34.8026 103.424 35.1691 103.436 34.6882C103.459 34.0925 103.47 28.1479 103.47 26.5443C103.47 26.1665 103.802 26.0518 103.802 26.0518C112.988 22.0202 126.286 22.3638 134.464 26.4528C140.603 29.5338 144.177 34.1957 147.556 48.1921C148.484 52.0636 149.549 57.3896 152.504 68.9579C153.924 74.513 155.425 76.5861 158.483 76.0021C158.861 75.9334 158.872 76.1281 158.872 76.4601C158.861 79.0946 158.861 83.5043 158.861 83.8135C158.861 84.7298 158.861 84.7298 158.552 84.7184C158.162 84.7069 150.099 84.7298 150.099 84.7298C146.422 84.7069 141.944 84.7069 136.125 79.6214L131.315 72.5314Z" fill="white"/>
<path d="M131.315 72.5314C131.453 72.9438 130.857 73.3561 130.468 73.5395C117.765 80.7668 113.149 59.3595 125.52 55.2361C126.024 55.0988 126.322 55.3506 126.322 55.3506L124.225 46.0959C117.617 47.5506 107.228 50.54 102.727 54.7894C92.6588 64.2961 96.9998 79.61 108.053 83.5729C114.226 85.7836 126.986 87.536 136.126 79.6213L131.315 72.5314Z" fill="white"/>
<path d="M217.657 22.0416C224.655 22.0416 230.337 17.4602 230.337 11.8019C230.337 6.14389 224.655 1.56226 217.657 1.56226C210.647 1.56226 204.978 6.14389 204.978 11.8019C204.978 17.4602 210.647 22.0416 217.657 22.0416Z" fill="white"/>
<path d="M274.245 49.8883C274.635 49.7854 276.17 49.8197 276.044 47.6549C275.711 42.1342 274.337 38.3658 272.722 36.1667C269.675 32.0319 264.097 31.883 261.222 38.0109C259.538 41.5844 259.206 48.0901 259.435 52.4311C259.516 53.7828 259.733 53.8515 260.97 53.5536L261.967 61.7202C261.532 61.9493 260.993 61.7546 261.623 63.4384C265.598 74.1248 271.302 75.5794 278.93 75.144C282.882 74.9265 287.303 72.8648 288.86 72.0516C290.407 71.2269 290.166 72.2119 290.166 72.796V80.0235C290.166 81.1917 290.269 81.6041 288.208 82.3487C277.785 86.1627 264.097 87.0675 253.468 81.8331C244.534 77.435 236.402 65.8322 237.101 53.1756C238.211 33.0285 250.731 22.1358 269.504 22.7428C284.29 23.224 295.595 34.0706 296.97 50.0143C297.027 50.6787 297.015 51.6981 296.386 52.0532L274.245 49.8883Z" fill="white"/>
<path d="M274.245 49.8884C271.633 50.6787 260.97 53.5537 260.97 53.5537L261.966 61.7203C262.39 61.4798 296.385 52.0533 296.385 52.0533L274.245 49.8884Z" fill="white"/>
<path d="M91.0914 80.0589C91.0799 82.8194 91.7213 83.8731 91.9387 84.3312C92.1222 84.7436 91.5724 84.6863 91.5724 84.6863H87.2887H69.432C69.432 84.6863 68.9968 84.7092 69.1342 84.3312C69.3977 83.5868 69.936 82.2467 69.936 80.0589L69.9129 77.1954V49.9812V44.8613C69.9017 42.9371 68.7105 38.8023 64.0487 38.7908C60.1886 38.8252 56.5922 42.3301 56.581 47.1864V57.3461L56.5695 77.6192C56.5695 77.6192 56.581 79.9559 56.581 80.0589C56.5695 82.8194 57.2109 83.8731 57.4283 84.3312C57.6118 84.7436 57.062 84.6863 57.062 84.6863H52.7895H34.9216C34.9216 84.6863 34.4864 84.7092 34.6238 84.3312C34.8873 83.5868 35.4141 82.2467 35.4256 80.0589V78.5356V50.0156V44.8957C35.4141 42.9599 34.2228 38.8366 29.5498 38.8137C25.7013 38.8481 22.0933 42.353 22.0933 47.2093V49.8323V78.4211L22.0706 80.0589C22.0706 82.8194 22.712 83.8731 22.9179 84.3312C23.1014 84.7436 22.5631 84.6863 22.5631 84.6863H18.2791H0.422722C0.422722 84.6863 -0.0239944 84.7092 0.113376 84.3312C0.388467 83.5868 0.903693 82.2467 0.926764 80.0589V78.1346C0.926764 71.022 0.915229 39.7873 0.903693 36.9123C0.926764 35.0339 0.331142 33.6939 0.044866 32.9607C-0.127109 32.5829 0.250747 32.4111 0.250747 32.4111C0.250747 32.4111 8.39475 28.7573 21.7382 22.595C21.8756 22.5379 22.1049 22.6179 22.0933 22.8586V28.2304V32.8463C22.0933 33.0983 22.3684 33.2357 22.5743 33.0181C22.689 32.9036 22.8263 32.7203 23.0098 32.5142C30.3286 21.358 53.1104 19.5484 56.6953 32.9036C56.7642 33.1325 57.0162 33.1096 57.1651 32.9036C61.6777 26.856 66.2022 23.8092 75.5025 23.8092C93.6913 23.8092 91.0683 39.3177 91.0568 48.8702L91.0683 77.1954L91.0914 80.0589Z" fill="white"/>
<path d="M185.89 80.1022C185.879 82.8512 186.52 83.9164 186.726 84.3745C186.921 84.787 186.371 84.7296 186.371 84.7296H180.953H163.097C163.097 84.7296 162.65 84.7412 162.787 84.3745C163.051 83.6186 163.578 82.29 163.589 80.1022L163.601 78.4529C163.601 71.3631 163.589 41.0906 163.589 38.2156C163.589 36.6121 162.513 33.6226 162.307 33.0843C162.169 32.798 162.616 32.6834 162.616 32.6834C162.616 32.6834 172.26 27.7583 185.546 21.6076C185.684 21.5502 185.901 21.6305 185.901 21.8709V27.8499C185.901 28.6517 185.982 31.1601 185.982 31.4923C185.982 31.7557 186.257 31.893 186.451 31.6755C186.566 31.5494 186.715 31.3776 186.886 31.1601C191.846 21.4244 199.726 21.7336 205.717 22.627C206.484 22.7415 206.381 22.9935 206.175 24.0014C205.785 25.9256 203.139 36.8183 202.91 37.62C202.727 38.2958 202.544 38.5936 201.731 38.4218C194.205 36.8412 185.901 39.2923 185.901 48.673V50.0245C185.901 56.8625 185.901 73.5851 185.913 78.4644L185.89 80.1022Z" fill="white"/>
<path d="M229.517 80.1023C229.505 82.8512 230.146 83.9165 230.353 84.3746C230.547 84.787 229.998 84.7297 229.998 84.7297H224.545H206.689C206.689 84.7297 206.242 84.7526 206.368 84.3746C206.643 83.6187 207.17 82.2901 207.181 80.1023L207.193 79.7816V33.3479C207.193 32.2025 207.193 32.1909 208.006 31.8244C208.43 31.6297 208.281 31.6984 208.281 31.6984C208.281 31.6984 215.978 27.8957 228.818 21.8481C228.955 21.7794 229.493 21.871 229.482 22.1117C229.482 23.9442 229.505 74.9596 229.517 79.8847V80.1023Z" fill="white"/>
<path d="M364.71 74.1555C359.361 76.8816 351.377 77.7635 346.612 71.7045C341.871 65.6683 339.534 60.3881 339.545 51.7406C339.557 32.0857 353.199 29.5086 363.553 35.2928V25.1905C357.711 22.2239 350.003 21.7085 344.207 22.3157C326.946 24.1597 316.867 38.6259 316.855 55.085C316.844 73.0216 328.298 94.4862 364.71 84.5099V74.1555Z" fill="white"/>
<path d="M393.318 77.8275C393.318 77.8275 393.237 -0.150118 393.272 0.250808C393.272 0.250808 377.179 7.68437 368.761 11.7046C369.597 12.3918 371.361 15.3928 371.361 25.2774V50.304C371.372 57.4626 371.361 71.1845 371.258 82.0427C371.246 83.2337 370.49 84.8946 370.49 85.0092H394.807C394.566 85.0092 393.318 77.8275 393.318 77.8275Z" fill="white"/>
<path d="M434.449 73.1706C434.586 73.606 434.357 73.7433 433.956 73.9496C431.184 75.7134 426.431 76.1029 423.636 73.5029C421.002 70.3874 419.627 66.8254 420.738 62.3697C421.62 59.6323 424.426 54.856 429.111 54.0199L427.61 45.063C427.622 45.2234 427.61 45.2119 427.141 45.315C425.72 45.6701 424.965 45.8075 422.502 46.2198C417.314 47.0788 411.449 48.8428 406.57 52.6454C392.653 63.4579 399.182 79.3671 410.487 84.0404C417.084 86.7664 428.733 88.3584 438.354 80.3293L434.449 73.1706Z" fill="white"/>
<path d="M434.449 73.1706L429.283 54.1001C429.283 54.1001 429.283 53.9627 429.111 54.0199L427.611 45.063C426.58 29.062 413.729 30.5396 406.593 33.2082C406.593 33.2082 406.192 33.5863 406.215 33.0822C406.226 32.4639 406.249 26.2903 406.249 24.6294C406.238 24.2285 406.581 24.1254 406.581 24.1254C415.664 20.1395 429.546 20.6778 437.564 24.6981C444.597 28.2145 448.09 34.6744 449.499 40.2295C449.499 40.2295 455.81 69.0243 456.52 72.1398C457.093 74.6368 458.719 76.813 461.262 76.8015C462.27 76.8015 462.407 76.9964 462.419 78.0385C462.43 80.5584 462.442 84.4413 462.43 84.9796C462.419 85.6325 462.373 85.873 461.881 85.873C461.48 85.873 453.153 85.8844 453.153 85.8844C448.674 85.8615 444.986 85.8501 438.354 80.3293L434.449 73.1706Z" fill="white"/>
<path d="M479.326 21.2468C486.587 21.2468 492.474 16.4935 492.474 10.6177C492.474 4.75344 486.587 0 479.326 0C472.052 0 466.165 4.75344 466.165 10.6177C466.165 16.4935 472.052 21.2468 479.326 21.2468Z" fill="white"/>
<path d="M490.773 80.1022V81.3508C490.773 83.1605 491.586 84.5234 491.781 85.0045C491.792 85.0619 491.723 85.0961 491.723 85.0961H485.527H466.559C466.559 85.0961 466.479 85.0619 466.502 85.0045C466.674 84.5578 467.499 83.1376 467.499 81.3508V79.9993C467.499 72.6115 467.51 36.3258 467.51 31.813C467.51 30.702 468.025 30.6562 468.025 30.6562C468.025 30.6562 476.536 26.3037 490.395 19.9009C490.532 19.8322 490.773 19.9125 490.761 20.1645C490.761 22.0772 490.773 74.9938 490.773 80.1022Z" fill="white"/>
<path d="M540.225 37.9614C534.75 37.8813 533.375 37.5377 530.489 38.557C526.893 39.9316 524.418 42.795 524.35 47.1589V49.8048V80.1345V81.3486C524.35 83.1124 525.14 84.4412 525.323 84.9108C525.346 84.9566 525.277 84.9908 525.277 84.9908H519.264H500.824C500.824 84.9908 500.755 84.9566 500.766 84.8993C500.938 84.4754 501.74 83.0895 501.74 81.3486V80.0429V36.7588C501.614 35.121 500.949 33.1394 500.755 32.624C500.617 32.3376 501.064 32.2345 501.064 32.2345C501.064 32.2345 510.513 27.8592 523.983 21.6512C524.109 21.5825 524.35 21.6627 524.338 21.9147V27.3323C524.338 28.1341 524.43 30.6883 524.43 31.0319C524.43 31.2839 524.705 31.4213 524.911 31.2037C525.025 31.0777 525.163 30.9059 525.346 30.6883C530.775 20.6319 539.64 21.9032 544.153 22.6133C544.932 22.7279 544.817 22.9798 544.612 23.9992C544.211 25.9464 541.657 36.335 541.427 37.1482C541.233 37.8355 541.061 37.9844 540.225 37.9614Z" fill="white"/>
<path d="M577.364 51.2398C577.742 51.1253 579.277 51.1598 579.151 48.9949C578.819 43.4742 577.444 39.7173 575.829 37.5182C572.782 33.3719 567.204 33.223 564.33 39.3623C562.657 42.9244 562.325 49.4416 562.554 53.7712C562.623 55.1227 562.852 55.1914 564.078 54.9051L565.074 63.0603C564.65 63.3008 564.1 63.1061 564.73 64.7899C568.705 75.4763 574.42 76.9193 582.037 76.4955C585.989 76.2779 590.41 74.2048 591.968 73.3916C593.525 72.567 593.285 73.5634 593.285 74.1475V81.375C593.285 82.5318 593.376 82.9441 591.326 83.7001C580.892 87.5026 567.204 88.4076 556.587 83.1732C547.653 78.7864 539.52 67.1722 540.208 54.5271C541.319 34.3684 553.849 23.4758 572.611 24.0943C587.409 24.5755 598.702 35.4108 600.077 51.3545C600.134 52.0188 600.134 53.0382 599.504 53.3932L577.364 51.2398Z" fill="white"/>
<path d="M577.364 51.2397C574.752 52.0187 564.077 54.9051 564.077 54.9051L565.073 63.0602C565.497 62.8311 599.504 53.3931 599.504 53.3931L577.364 51.2397Z" fill="white"/>
</g>
<defs>
<clipPath id="clip0_17_6">
<rect width="600.1" height="87.0463" fill="white"/>
</clipPath>
</defs>
</svg>
