<svg width="652" height="652" viewBox="0 0 652 652" fill="none" xmlns="http://www.w3.org/2000/svg">
<g clip-path="url(#clip0_21_18)">
<path d="M156.315 354.531L151.321 337.351L149.225 328.096C149.534 328.016 149.282 327.397 149.271 327.306C147.495 312.633 136.168 314.283 128.814 316.803C128.814 316.803 128.425 317.169 128.436 316.688C128.459 316.093 128.471 310.148 128.471 308.544C128.471 308.166 128.803 308.052 128.803 308.052C137.989 304.02 151.287 304.364 159.465 308.453C165.604 311.534 169.178 316.196 172.557 330.192C173.484 334.064 174.549 339.39 177.504 350.958C178.925 356.513 180.425 358.586 183.483 358.002C183.862 357.933 183.873 358.128 183.873 358.46C183.862 361.095 183.862 365.504 183.862 365.813C183.862 366.73 183.862 366.73 183.552 366.718C183.163 366.707 175.099 366.73 175.099 366.73C171.422 366.707 166.944 366.707 161.126 361.621L156.315 354.531Z" fill="#67E8F9"/>
<path d="M156.315 354.531C156.452 354.944 155.857 355.356 155.467 355.539C142.765 362.767 138.149 341.36 150.519 337.236C151.023 337.099 151.321 337.351 151.321 337.351L149.225 328.096C142.616 329.551 132.227 332.54 127.726 336.789C117.658 346.296 121.999 361.61 133.052 365.573C139.226 367.784 151.985 369.536 161.125 361.621L156.315 354.531Z" fill="#67E8F9"/>
<path d="M242.657 304.042C249.655 304.042 255.337 299.46 255.337 293.802C255.337 288.144 249.655 283.562 242.657 283.562C235.647 283.562 229.978 288.144 229.978 293.802C229.978 299.46 235.647 304.042 242.657 304.042Z" fill="#67E8F9"/>
<path d="M299.245 331.888C299.634 331.785 301.169 331.82 301.043 329.655C300.711 324.134 299.337 320.366 297.721 318.167C294.675 314.032 289.097 313.883 286.222 320.011C284.538 323.584 284.206 330.09 284.435 334.431C284.515 335.783 284.733 335.851 285.97 335.554L286.966 343.72C286.531 343.949 285.993 343.755 286.623 345.438C290.597 356.125 296.301 357.579 303.93 357.144C307.881 356.926 312.302 354.865 313.86 354.052C315.406 353.227 315.166 354.212 315.166 354.796V362.023C315.166 363.192 315.269 363.604 313.207 364.349C302.784 368.163 289.097 369.067 278.467 363.833C269.533 359.435 261.401 347.832 262.1 335.176C263.211 315.028 275.73 304.136 294.503 304.743C309.29 305.224 320.595 316.071 321.969 332.014C322.026 332.679 322.015 333.698 321.385 334.053L299.245 331.888Z" fill="#67E8F9"/>
<path d="M299.245 331.888C296.633 332.679 285.97 335.554 285.97 335.554L286.966 343.72C287.39 343.48 321.385 334.053 321.385 334.053L299.245 331.888Z" fill="#67E8F9"/>
<path d="M116.091 362.059C116.08 364.819 116.721 365.873 116.939 366.331C117.122 366.744 116.572 366.686 116.572 366.686H112.289H94.432C94.432 366.686 93.9968 366.709 94.1342 366.331C94.3977 365.587 94.936 364.247 94.936 362.059L94.9129 359.195V331.981V326.861C94.9017 324.937 93.7105 320.802 89.0487 320.791C85.1886 320.825 81.5922 324.33 81.581 329.186V339.346L81.5695 359.619C81.5695 359.619 81.581 361.956 81.581 362.059C81.5695 364.819 82.2109 365.873 82.4283 366.331C82.6118 366.744 82.062 366.686 82.062 366.686H77.7895H59.9216C59.9216 366.686 59.4864 366.709 59.6238 366.331C59.8873 365.587 60.4141 364.247 60.4256 362.059V360.536V332.016V326.896C60.4141 324.96 59.2228 320.837 54.5498 320.814C50.7013 320.848 47.0933 324.353 47.0933 329.209V331.832V360.421L47.0706 362.059C47.0706 364.819 47.712 365.873 47.9179 366.331C48.1014 366.744 47.5631 366.686 47.5631 366.686H43.2791H25.4227C25.4227 366.686 24.976 366.709 25.1134 366.331C25.3885 365.587 25.9037 364.247 25.9268 362.059V360.135C25.9268 353.022 25.9152 321.787 25.9037 318.912C25.9268 317.034 25.3311 315.694 25.0449 314.961C24.8729 314.583 25.2507 314.411 25.2507 314.411C25.2507 314.411 33.3948 310.757 46.7382 304.595C46.8756 304.538 47.1049 304.618 47.0933 304.859V310.23V314.846C47.0933 315.098 47.3684 315.236 47.5743 315.018C47.689 314.904 47.8263 314.72 48.0098 314.514C55.3286 303.358 78.1104 301.548 81.6953 314.904C81.7642 315.133 82.0162 315.11 82.1651 314.904C86.6777 308.856 91.2022 305.809 100.502 305.809C118.691 305.809 116.068 321.318 116.057 330.87L116.068 359.195L116.091 362.059Z" fill="#67E8F9"/>
<path d="M210.89 362.102C210.879 364.851 211.52 365.916 211.726 366.374C211.921 366.787 211.371 366.73 211.371 366.73H205.953H188.097C188.097 366.73 187.65 366.741 187.787 366.374C188.051 365.619 188.578 364.29 188.589 362.102L188.601 360.453C188.601 353.363 188.589 323.091 188.589 320.216C188.589 318.612 187.513 315.623 187.307 315.084C187.169 314.798 187.616 314.683 187.616 314.683C187.616 314.683 197.26 309.758 210.546 303.608C210.684 303.55 210.901 303.63 210.901 303.871V309.85C210.901 310.652 210.982 313.16 210.982 313.492C210.982 313.756 211.257 313.893 211.451 313.675C211.566 313.549 211.715 313.378 211.886 313.16C216.846 303.424 224.726 303.734 230.717 304.627C231.484 304.741 231.381 304.994 231.175 306.001C230.785 307.926 228.139 318.818 227.91 319.62C227.727 320.296 227.544 320.594 226.731 320.422C219.205 318.841 210.901 321.292 210.901 330.673V332.025C210.901 338.862 210.901 355.585 210.913 360.464L210.89 362.102Z" fill="#67E8F9"/>
<path d="M254.517 362.102C254.505 364.851 255.146 365.916 255.353 366.375C255.547 366.787 254.998 366.73 254.998 366.73H249.545H231.689C231.689 366.73 231.242 366.753 231.368 366.375C231.643 365.619 232.17 364.29 232.181 362.102L232.193 361.782V315.348C232.193 314.202 232.193 314.191 233.006 313.824C233.43 313.63 233.281 313.698 233.281 313.698C233.281 313.698 240.978 309.896 253.818 303.848C253.955 303.779 254.493 303.871 254.482 304.112C254.482 305.944 254.505 356.96 254.517 361.885V362.102Z" fill="#67E8F9"/>
<path d="M389.71 356.156C384.361 358.882 376.377 359.764 371.612 353.705C366.871 347.668 364.534 342.388 364.545 333.741C364.557 314.086 378.199 311.509 388.553 317.293V307.19C382.711 304.224 375.003 303.709 369.207 304.316C351.946 306.16 341.867 320.626 341.855 337.085C341.844 355.022 353.298 376.486 389.71 366.51V356.156Z" fill="#67E8F9"/>
<path d="M418.318 359.828C418.318 359.828 418.237 281.85 418.272 282.251C418.272 282.251 402.179 289.684 393.761 293.705C394.597 294.392 396.361 297.393 396.361 307.277V332.304C396.372 339.463 396.361 353.184 396.258 364.043C396.246 365.234 395.49 366.895 395.49 367.009H419.807C419.566 367.009 418.318 359.828 418.318 359.828Z" fill="#67E8F9"/>
<path d="M459.449 355.171C459.586 355.606 459.357 355.743 458.956 355.95C456.184 357.713 451.431 358.103 448.636 355.503C446.002 352.387 444.627 348.825 445.738 344.37C446.62 341.632 449.426 336.856 454.111 336.02L452.61 327.063C452.622 327.223 452.61 327.212 452.141 327.315C450.72 327.67 449.965 327.808 447.502 328.22C442.314 329.079 436.449 330.843 431.57 334.645C417.653 345.458 424.182 361.367 435.487 366.04C442.084 368.766 453.733 370.358 463.354 362.329L459.449 355.171Z" fill="#67E8F9"/>
<path d="M459.449 355.171L454.283 336.1C454.283 336.1 454.283 335.963 454.111 336.02L452.611 327.063C451.58 311.062 438.729 312.54 431.593 315.208C431.593 315.208 431.192 315.586 431.215 315.082C431.226 314.464 431.249 308.29 431.249 306.629C431.238 306.228 431.581 306.125 431.581 306.125C440.664 302.14 454.546 302.678 462.564 306.698C469.597 310.214 473.09 316.674 474.499 322.23C474.499 322.23 480.81 351.024 481.52 354.14C482.093 356.637 483.719 358.813 486.262 358.801C487.27 358.801 487.407 358.996 487.419 360.039C487.43 362.558 487.442 366.441 487.43 366.98C487.419 367.633 487.373 367.873 486.881 367.873C486.48 367.873 478.153 367.884 478.153 367.884C473.674 367.861 469.986 367.85 463.354 362.329L459.449 355.171Z" fill="#67E8F9"/>
<path d="M504.326 303.247C511.587 303.247 517.474 298.494 517.474 292.618C517.474 286.753 511.587 282 504.326 282C497.052 282 491.165 286.753 491.165 292.618C491.165 298.494 497.052 303.247 504.326 303.247Z" fill="#67E8F9"/>
<path d="M515.773 362.102V363.351C515.773 365.161 516.586 366.523 516.781 367.005C516.792 367.062 516.723 367.096 516.723 367.096H510.527H491.559C491.559 367.096 491.479 367.062 491.502 367.005C491.674 366.558 492.499 365.138 492.499 363.351V361.999C492.499 354.611 492.51 318.326 492.51 313.813C492.51 312.702 493.025 312.656 493.025 312.656C493.025 312.656 501.536 308.304 515.395 301.901C515.532 301.832 515.773 301.912 515.761 302.164C515.761 304.077 515.773 356.994 515.773 362.102Z" fill="#67E8F9"/>
<path d="M565.225 319.961C559.75 319.881 558.375 319.538 555.489 320.557C551.893 321.932 549.418 324.795 549.35 329.159V331.805V362.134V363.349C549.35 365.112 550.14 366.441 550.323 366.911C550.346 366.957 550.277 366.991 550.277 366.991H544.264H525.824C525.824 366.991 525.755 366.957 525.766 366.899C525.938 366.475 526.74 365.089 526.74 363.349V362.043V318.759C526.614 317.121 525.949 315.139 525.755 314.624C525.617 314.338 526.064 314.234 526.064 314.234C526.064 314.234 535.513 309.859 548.983 303.651C549.109 303.582 549.35 303.663 549.338 303.915V309.332C549.338 310.134 549.43 312.688 549.43 313.032C549.43 313.284 549.705 313.421 549.911 313.204C550.025 313.078 550.163 312.906 550.346 312.688C555.775 302.632 564.64 303.903 569.153 304.613C569.932 304.728 569.817 304.98 569.612 305.999C569.211 307.946 566.657 318.335 566.427 319.148C566.233 319.836 566.061 319.984 565.225 319.961Z" fill="#67E8F9"/>
<path d="M602.364 333.24C602.742 333.125 604.277 333.16 604.151 330.995C603.819 325.474 602.444 321.717 600.829 319.518C597.782 315.372 592.204 315.223 589.33 321.362C587.657 324.924 587.325 331.442 587.554 335.771C587.623 337.123 587.852 337.191 589.078 336.905L590.074 345.06C589.65 345.301 589.1 345.106 589.73 346.79C593.705 357.476 599.42 358.919 607.037 358.496C610.989 358.278 615.41 356.205 616.968 355.392C618.525 354.567 618.285 355.563 618.285 356.147V363.375C618.285 364.532 618.376 364.944 616.326 365.7C605.892 369.503 592.204 370.408 581.587 365.173C572.653 360.786 564.52 349.172 565.208 336.527C566.319 316.368 578.849 305.476 597.611 306.094C612.409 306.575 623.702 317.411 625.077 333.354C625.134 334.019 625.134 335.038 624.504 335.393L602.364 333.24Z" fill="#67E8F9"/>
<path d="M602.364 333.24C599.752 334.019 589.077 336.905 589.077 336.905L590.073 345.06C590.497 344.831 624.504 335.393 624.504 335.393L602.364 333.24Z" fill="#67E8F9"/>
</g>
<defs>
<clipPath id="clip0_21_18">
<rect width="600.1" height="87.0463" fill="white" transform="translate(25 282)"/>
</clipPath>
</defs>
</svg>
