<svg width="157" height="104" viewBox="0 0 157 104" fill="none" xmlns="http://www.w3.org/2000/svg">
<path d="M135.36 42.3399L143.49 38.5599H151.61L154.56 40.4499L152.74 45.2599L145.39 47.5999L135.36 42.3399Z" fill="white"/>
<path d="M147.3 48.9599C143.96 48.9599 139.49 47.7799 133.5 44.4499C132.86 44.0999 132.46 43.4299 132.45 42.6999C132.44 41.9799 132.81 41.2899 133.43 40.9199C134.45 40.2999 138.1 38.1999 142.17 36.8699C147.84 35.0299 152.08 35.3899 154.78 37.9499C156.63 39.6999 156.98 42.5499 155.62 44.7099C154.4 46.6499 151.96 48.9599 147.29 48.9599H147.3ZM138.04 42.6199C145.25 46.0799 150.33 46.1399 152.48 42.7299C152.89 42.0699 152.78 41.1799 152.23 40.6499C150.19 38.7199 146.26 39.4499 143.32 40.3999C141.36 41.0399 139.49 41.8799 138.04 42.6199Z" fill="black"/>
<path d="M128.52 21.82L118.03 25.72L104.87 27.67H94.36L81.92 18.89L68.26 14.5L58.99 15.96L48.25 26.45L47.03 33.04L48.74 47.1L25.33 56.46L14.83 63.54L9.20996 70.12V75.49L14.09 80.86L23.37 79.88L29.95 78.66L41.42 75.49L47.27 97.94L50.2 101.6L57.77 102.57L66.31 100.13L73.62 94.28L76.55 88.91L82.16 89.64L85.82 88.42L91.43 86.96L95.58 84.52L100.71 86.96L104.87 89.4L110.71 87.69L112.66 84.03L108.27 76.71L108.51 72.56L122.66 72.32L131.45 71.1V65.97L124.37 62.07L113.39 61.1L112.66 58.53L118.03 53.78L121.93 51.09L122.18 47.1L113.39 42.34L111.93 37.58L117.3 36.21L125.35 36.45L134.31 32.55L136.08 26.69V22.06L128.52 21.82Z" fill="white"/>
<path d="M61.1799 66.8699C61.1799 66.8699 64.3499 75.2499 52.8799 75.3699L55.6699 82.2799L67.2299 78.8499L71.9099 71.9599L67.9799 66.8799H61.1699L61.1799 66.8699Z" fill="#CDCCCC"/>
<path d="M53.86 95.7399C53.86 95.7399 75.94 91.4699 75.7 82.5699L76.99 87.3099L70.59 96.6999L55.68 102.3L48.35 99.3799L47.27 97.9399L53.86 95.7399Z" fill="#CDCCCC"/>
<path d="M43.6201 64.5099C36.0601 75.2399 7.81006 75.3699 7.81006 75.3699L17.3901 81.71L25.7101 80.6399L40.3201 72.8799L43.6101 64.5099H43.6201Z" fill="#CDCCCC"/>
<path d="M125.02 22.83C125.02 22.83 139.19 28.76 116.87 34.5L111.45 38.16V42.92L116.82 46.64C116.82 46.64 120.6 48.87 116.27 50.57C111.94 52.28 111.45 57.28 111.45 57.28V61.09L123.73 63.42L129.43 65.7C129.43 65.7 129.81 72.07 112.06 70.52L116.37 73.38L129.42 74L132.27 66.41L114.34 60.19L112.97 57.08L121.86 53.16L122.76 47.69L113.89 42.07L112.28 39.11L113.95 37.63L118.74 38.17L132.28 35.39L136.58 26.24L135.6 21.12L125.02 22.85V22.83Z" fill="#CDCCCC"/>
<path d="M84.3601 49.1699C84.3601 49.1699 89.1801 59.9699 79.5401 70.6699C69.9001 81.3699 95.5801 84.5199 95.5801 84.5199L88.2901 90.7099L77.3701 89.0199L76.7101 82.9999L68.1901 80.4999L66.6401 77.8099L71.9101 71.9499L70.0801 67.8299L79.7601 59.8699L82.2401 52.9399L84.3501 49.1699H84.3601Z" fill="#CDCCCC"/>
<path d="M80.3503 41.48C80.3503 41.48 74.3003 66.28 63.3203 63.53L68.0003 66.86L74.5703 65.25L82.2603 52.93L80.3503 41.47V41.48Z" fill="#CDCCCC"/>
<path d="M20.3302 82.5099C16.0602 82.5099 13.3302 81.4399 13.1202 81.3599C8.63021 79.5399 6.23022 76.9599 5.97022 73.6899C5.34022 65.8599 18.1602 57.8199 19.6302 56.9299C20.5102 56.3999 21.6502 56.6699 22.1802 57.5499C22.7102 58.4299 22.4402 59.5699 21.5602 60.0999C16.7902 63.0099 9.34021 69.1899 9.68021 73.3899C9.82021 75.1399 11.4502 76.6599 14.5302 77.9099C14.8702 78.0499 23.3002 81.2399 33.9902 74.6499C34.8602 74.1099 36.0102 74.3799 36.5502 75.2599C37.0902 76.1299 36.8202 77.2799 35.9402 77.8199C29.9002 81.5399 24.4202 82.5099 20.3502 82.5099H20.3302Z" fill="black"/>
<path d="M83.2199 92.16C79.1299 92.16 75.8899 90.98 75.6599 90.89C74.6999 90.53 74.2099 89.46 74.5699 88.5C74.9299 87.54 75.9999 87.05 76.9599 87.41C77.0399 87.44 85.0499 90.3199 90.7099 86.2599C94.9999 83.1799 97.0399 76.87 96.7799 67.49C96.7499 66.46 97.5599 65.61 98.5899 65.58C99.6099 65.56 100.47 66.36 100.5 67.39C100.8 78.09 98.2299 85.46 92.8599 89.3C89.7599 91.52 86.2599 92.16 83.2199 92.16Z" fill="black"/>
<path d="M54.53 103.91C50.84 103.91 48.09 102.65 46.74 100.31C43.91 95.41 48.63 87.56 57.49 82.45C61.52 80.12 65.81 78.72 69.55 78.5C73.74 78.25 76.86 79.53 78.33 82.07C79.8 84.61 79.34 87.95 77.03 91.46C74.97 94.59 71.62 97.6 67.58 99.93C63.55 102.26 59.26 103.66 55.52 103.88C55.18 103.9 54.85 103.91 54.53 103.91ZM70.54 82.19C70.29 82.19 70.03 82.19 69.76 82.21C66.59 82.39 62.89 83.62 59.35 85.67C51.94 89.95 48.46 95.84 49.96 98.45C50.68 99.7 52.63 100.32 55.31 100.17C58.48 99.99 62.18 98.76 65.72 96.71C69.26 94.67 72.17 92.08 73.92 89.42C75.39 87.18 75.83 85.18 75.11 83.93C74.46 82.81 72.82 82.19 70.54 82.19Z" fill="black"/>
<path d="M52.3601 83.7399C50.5101 83.7399 48.7601 83.5399 47.1901 83.1399C43.4501 82.1899 41.0701 80.2099 40.4901 77.5599C39.9001 74.9099 41.2201 72.0999 44.2101 69.6699C46.8501 67.5199 50.5701 65.8399 54.6901 64.9299C63.9301 62.8899 71.7501 65.2299 72.8901 70.3899C74.0301 75.5499 67.9301 80.9799 58.6901 83.0199C56.5301 83.4999 54.3901 83.7399 52.3601 83.7399ZM60.9901 67.9299C59.3001 67.9299 57.4401 68.1199 55.4901 68.5499C51.9201 69.3399 48.7501 70.7599 46.5601 72.5499C44.7401 74.0299 43.8501 75.5599 44.1201 76.7599C44.3801 77.9499 45.8401 78.9699 48.1101 79.5399C50.8501 80.2399 54.3301 80.1799 57.8901 79.3899C65.0901 77.7999 69.8301 73.7499 69.2601 71.1899C68.8501 69.3199 65.5401 67.9299 60.9901 67.9299Z" fill="black"/>
<path d="M6.2002 25.48L17.3902 24.19L25.6202 18.7L59.4702 88.91L53.8602 95.74L40.9302 98.1799L37.5202 92.81L6.2002 25.48Z" fill="#76C0EC"/>
<path d="M33.6899 58.53C33.6899 58.53 26.2399 57.85 23.8899 63.5L18.3999 52.39L30.3499 52.57L33.6899 58.53Z" fill="#2494CD"/>
<path d="M24.1602 22.3C24.1602 22.3 25.9002 27.91 15.4402 31.45C11.5902 32.75 36.0002 61.58 36.0002 61.58C36.0002 61.58 35.3902 56.15 39.5402 58.04C43.6902 59.93 47.2902 73.98 47.2902 73.98L51.3202 72.31L26.7702 20.63L24.1702 22.3H24.1602Z" fill="#2494CD"/>
<path d="M14.46 26.5699C14.46 26.5699 9.43004 27.2099 13 33.0999L36.06 80.13L33.01 83.5499L7.04004 27.5299L14.47 26.5799L14.46 26.5699Z" fill="#ABD7ED"/>
<path d="M33.0002 83.5399C33.0002 83.5399 43.4902 72.1999 52.8802 75.3699L59.2202 88.4199L55.5602 93.4199L43.8502 98.4199L39.4602 97.5699L32.9902 83.5399H33.0002Z" fill="white"/>
<path d="M39.19 93.38C39.19 93.38 54.95 93.91 55.16 85.85L57.76 86.67L55.69 94.17L47.28 97.92L40.45 96.91L37.52 92.79L39.19 93.36V93.38Z" fill="#CDCCCC"/>
<path d="M7.03019 9.26994L6.2002 25.4799H18.3902L25.6202 18.6999L19.3802 12.3999L11.8202 5.55994L7.03019 9.26994Z" fill="white"/>
<path d="M46.0599 99.36C43.3999 99.36 40.5899 98.58 37.6499 97.02L37.1599 96.76L5.51994 28.22C5.27994 27.69 4.70994 26.46 5.39994 25.37C6.08994 24.29 7.33994 24.28 8.55994 24.28L17.7799 23.86L24.2799 18.77C24.4599 18.62 24.5899 18.5 24.6999 18.41C25.0799 18.07 25.7299 17.5 26.6699 17.77C27.5999 18.03 27.8499 18.85 27.9499 19.2C28.0099 19.39 28.0799 19.62 28.2299 19.95L59.2199 85.99C59.9999 87.66 59.8999 89.61 58.9399 91.2C57.6399 93.35 55.3599 96.27 51.9099 97.98C50.0499 98.9 48.0899 99.37 46.0399 99.37L46.0599 99.36ZM39.6899 94.35C48.6799 98.85 53.8399 93.26 56.1299 89.48C56.5199 88.84 56.5599 88.05 56.2499 87.38L25.5499 21.97L18.9899 27.1L8.85994 27.56L39.6899 94.35Z" fill="black"/>
<path d="M7.36007 27.63H7.32007C6.52007 27.63 5.76007 27.29 5.24007 26.69C4.71007 26.09 4.47007 25.29 4.57007 24.5L7.17007 2.59995C7.28007 1.71995 7.86007 0.989952 8.67007 0.689952C9.48007 0.379952 10.3901 0.549953 11.0501 1.11995L11.1101 1.17995L26.1701 15.92C27.1301 16.79 27.6301 18.02 27.5501 19.32C27.4601 20.63 26.7901 21.8 25.6901 22.53L18.9401 27.1L7.36007 27.63ZM10.2201 4.93995L7.93007 24.3L17.8601 23.85L23.8501 19.79C24.1801 19.57 24.2401 19.27 24.2501 19.1C24.2601 18.94 24.2401 18.63 23.9501 18.37L23.8901 18.31L10.2201 4.92995V4.93995Z" fill="black"/>
<path d="M32.68 84.97C31.88 84.97 31.23 84.32 31.23 83.52C31.23 82.72 31.58 81.45 34.65 79.1C38.7 76 47.03 71.6 52.15 72.99C52.92 73.2 53.38 73.99 53.17 74.76C52.96 75.53 52.17 75.98 51.4 75.78C46.35 74.41 34.97 81.53 34.12 83.63C34.06 84.37 33.44 84.96 32.68 84.96V84.97Z" fill="black"/>
<path d="M41.8803 77.8899C41.2603 77.8899 40.6603 77.5299 40.3803 76.9299L16.9003 26.1699C16.5203 25.3399 16.8803 24.36 17.7103 23.98C18.5403 23.6 19.5203 23.9599 19.9003 24.7899L43.3803 75.5499C43.7603 76.3799 43.4003 77.36 42.5703 77.74C42.3503 77.84 42.1103 77.8899 41.8803 77.8899Z" fill="black"/>
<path d="M30.3502 63.29C29.9802 63.29 29.6302 63.09 29.4402 62.75L22.9802 50.86C22.7102 50.36 22.8902 49.73 23.3902 49.46C23.8902 49.19 24.5202 49.37 24.7902 49.87L31.2502 61.76C31.5202 62.26 31.3402 62.89 30.8402 63.16C30.6802 63.25 30.5102 63.29 30.3502 63.29Z" fill="black"/>
<path d="M39.5299 59.0799C39.1599 59.0799 38.7899 58.8799 38.6099 58.5199L34.0399 49.6499C33.7799 49.1399 33.9799 48.5199 34.4799 48.2599C34.9899 47.9999 35.6099 48.1999 35.8699 48.6999L40.4399 57.5699C40.6999 58.0799 40.4999 58.6999 39.9999 58.9599C39.8499 59.0399 39.6899 59.0799 39.5299 59.0799Z" fill="black"/>
<path d="M38.43 95.6299C37.63 95.6299 36.98 94.9799 36.98 94.1799C36.98 92.8099 37.88 91.2699 39.58 89.7299C43.34 86.3299 50.61 83.2299 57.26 83.8899C58.05 83.9699 58.63 84.6799 58.56 85.4699C58.48 86.2599 57.77 86.8499 56.98 86.7699C51.24 86.1999 44.73 88.9699 41.53 91.8699C40.23 93.0499 39.88 93.8699 39.88 94.1799C39.88 94.9799 39.23 95.6299 38.43 95.6299Z" fill="black"/>
<path d="M44.59 29.3799L33 30.4799L9.33998 36.0899L4.20998 42.3399L3.47998 46.0899L8.96998 50.9699L19.36 53.5299L41.18 52.3899L48.42 65.8199L54.72 62.4399V57.1899L46.66 39.8699L44.59 29.3799Z" fill="white"/>
<path d="M4.20998 42.34C4.20998 42.34 26.35 52.43 43.21 44.47L48 42.86L52.48 52.39L55.68 60.3L50.26 66.87L45.44 57.62L40.44 50.86L26.72 52.58L11.59 51.34L3.47998 46.1L4.20998 42.35V42.34Z" fill="#CDCCCC"/>
<path d="M49.2501 71.98L40.2801 53.37C20.2201 56.27 7.63012 54.85 2.85012 49.14C-0.0898777 45.63 1.13012 41.9 1.18012 41.74L1.24013 41.56L1.33013 41.4C10.4001 25.8 46.3601 27.91 47.8901 28C48.9101 28.07 49.6901 28.95 49.6301 29.97C49.5601 30.99 48.6801 31.77 47.6601 31.71C47.3101 31.69 12.8201 29.66 4.67012 43.06C4.57012 43.54 4.36012 45.19 5.76012 46.81C8.05012 49.46 15.6901 53.34 41.0901 49.48L42.4501 49.27L49.8801 64.68L54.1801 58.63C54.7701 57.79 55.9301 57.6 56.7701 58.19C57.6101 58.78 57.8001 59.94 57.2101 60.78L49.2601 71.96L49.2501 71.98Z" fill="black"/>
<path d="M105.65 90.27C101.71 90.27 97.5399 87.92 96.3599 82.9C96.1299 81.9 96.7499 80.9 97.7499 80.67C98.7499 80.44 99.7499 81.06 99.9799 82.06C100.81 85.61 104.1 86.97 106.78 86.45C107.63 86.28 110.31 85.51 110.01 82.39C107 77.45 106.29 74.11 107.78 71.9C109.36 69.54 112.49 69.99 112.84 70.05L113.03 70.09C117.95 71.44 128.67 73.04 130.44 69.34C130.79 68.62 130.66 68.2 130.49 67.89C129.37 65.79 123.7 64.11 120.01 63.58C113.33 63 109.77 61.48 109.44 59.08C109.09 56.49 112.23 54.94 115.36 53.78C120.92 51.7 121.34 50.05 121.37 49.74C121.43 49.08 120.58 48.3 120.03 47.92C112.74 46.09 109.09 43.22 109.17 39.4C109.2 37.87 109.91 36.41 111.11 35.4C112.37 34.34 114.02 33.88 115.64 34.13C123.62 35.35 129.51 34.48 132.65 31.61C135.37 29.13 135.21 25.95 135.21 25.82C135.09 24.29 134.54 23.77 134.14 23.51C131.37 21.76 123.38 24.84 116.96 27.31C111.78 29.3 106.89 31.19 103.32 31.39C95.5799 31.83 92.8299 29.9 85.4799 24.73C82.8699 22.9 79.6299 20.63 75.3099 17.85C70.5999 15.82 66.1499 15.62 62.0899 17.25C54.5899 20.26 50.4299 28.56 49.6299 30.3C49.6799 42.83 52.0999 52.21 56.8199 58.2C60.6199 63.03 65.1499 64.6 68.2799 65.07C70.0999 65.34 71.9599 64.89 73.4999 63.79C80.4799 58.81 81.0599 52.27 80.3199 47.65C79.4499 42.24 76.6199 38.59 75.6499 38.29C74.6599 38.02 74.0699 37.01 74.3399 36.01C74.6099 35.01 75.6299 34.43 76.6199 34.7C79.5999 35.5 82.8699 40.84 83.9099 46.61C84.7699 51.35 84.8299 60.27 75.6499 66.82C73.3199 68.48 70.4999 69.17 67.7199 68.75C63.9299 68.18 58.4499 66.29 53.8899 60.51C48.5899 53.78 45.8999 43.49 45.8999 29.91V29.54L46.0399 29.2C46.2299 28.73 50.8999 17.74 60.6899 13.81C65.7499 11.78 71.2099 12.01 76.9199 14.52L77.0499 14.58L77.1699 14.66C81.6199 17.52 84.9299 19.84 87.5899 21.71C94.7199 26.72 96.6399 28.06 103.09 27.7C106.07 27.53 110.92 25.67 115.6 23.86C123.91 20.66 131.76 17.64 136.1 20.38C137.77 21.44 138.71 23.18 138.89 25.56C138.91 25.77 139.22 30.58 135.2 34.3C131.15 38.05 124.37 39.23 115.06 37.81C114.49 37.72 113.92 37.89 113.48 38.25C113.26 38.44 112.88 38.85 112.87 39.48C112.83 41.27 115.95 43.1 121.2 44.38L121.46 44.44L121.69 44.57C122.06 44.78 125.34 46.76 125.07 50.03C124.84 52.86 122.09 55.22 116.66 57.25C115.16 57.81 114.27 58.26 113.75 58.58C115.11 59.11 117.83 59.66 120.38 59.88H120.48C120.59 59.91 123.11 60.27 125.94 61.13C130.03 62.38 132.66 64.07 133.77 66.13C134.57 67.63 134.58 69.3 133.79 70.95C130.27 78.31 114.51 74.35 112.16 73.71C111.73 73.66 111.02 73.74 110.86 73.98C110.86 73.99 110.02 75.39 113.38 80.79L113.58 81.11L113.64 81.48C114.2 85.07 112.52 89.13 107.49 90.12C106.89 90.24 106.27 90.3 105.64 90.3L105.65 90.27Z" fill="black"/>
<path d="M71.6101 61.55C71.0001 61.55 70.4001 61.25 70.0501 60.7C69.4901 59.84 69.7401 58.69 70.6001 58.13C71.5501 57.51 71.8501 56 71.8501 54.53C69.0801 57.16 64.3101 58.03 63.6101 58.14C62.6001 58.31 61.6401 57.62 61.4701 56.61C61.3001 55.6 61.9901 54.64 63.0001 54.47C65.1401 54.11 69.7001 52.68 70.0701 50.53C70.4301 48.47 71.6001 48.07 72.2601 48.02C73.1001 47.95 74.2501 48.33 74.9601 50.44C75.8001 52.93 76.3201 58.84 72.6101 61.24C72.3001 61.44 71.9501 61.54 71.6001 61.54L71.6101 61.55Z" fill="black"/>
<path d="M8.80033 2.79993L7.59033 13.0399C7.59033 13.0399 15.0103 15.4199 16.0503 9.43993L8.81033 2.80993L8.80033 2.79993Z" fill="black"/>
</svg>
