<svg width="114" height="114" viewBox="0 0 114 114" fill="none" xmlns="http://www.w3.org/2000/svg">
<path d="M94.4702 50.502L99.8189 48.0151H105.161L107.102 49.2586L105.905 52.4231L101.069 53.9626L94.4702 50.502Z" fill="white"/>
<path d="M102.325 54.8575C100.128 54.8575 97.1869 54.0812 93.2461 51.8904C92.825 51.6601 92.5619 51.2193 92.5553 50.7391C92.5487 50.2654 92.7921 49.8114 93.2 49.568C93.8711 49.1601 96.2724 47.7785 98.9501 46.9035C102.68 45.693 105.47 45.9298 107.246 47.614C108.463 48.7654 108.694 50.6404 107.799 52.0614C106.996 53.3378 105.391 54.8575 102.319 54.8575H102.325ZM96.233 50.6864C100.976 52.9628 104.319 53.0022 105.733 50.7588C106.003 50.3246 105.93 49.7391 105.569 49.3904C104.226 48.1206 101.641 48.6009 99.7067 49.2259C98.4172 49.6469 97.1869 50.1996 96.233 50.6864Z" fill="black"/>
<path d="M89.9697 37.002L83.0683 39.5678L74.4103 40.8507H67.4958L59.3115 35.0743L50.3246 32.1862L44.2259 33.1467L37.16 40.0481L36.3574 44.3836L37.4824 53.6337L22.0809 59.7916L15.173 64.4496L11.4756 68.7786V72.3115L14.6861 75.8444L20.7915 75.1997L25.1204 74.397L32.6665 72.3115L36.5153 87.0814L38.4429 89.4893L43.4232 90.1274L49.0417 88.5222L53.8509 84.6734L55.7786 81.1405L59.4694 81.6208L61.8773 80.8181L65.5681 79.8576L68.2984 78.2523L71.6735 79.8576L74.4103 81.4629L78.2525 80.3379L79.5354 77.93L76.6472 73.1141L76.8051 70.3838L86.1144 70.2259L91.8973 69.4233V66.0483L87.2394 63.4825L80.0156 62.8443L79.5354 61.1535L83.0683 58.0285L85.6341 56.2587L85.7986 53.6337L80.0156 50.5021L79.0551 47.3705L82.588 46.4692L87.8841 46.6271L93.7789 44.0613L94.9434 40.206V37.1599L89.9697 37.002Z" fill="white"/>
<path d="M45.6671 66.6404C45.6671 66.6404 47.7527 72.1536 40.2065 72.2325L42.0421 76.7786L49.6474 74.522L52.7264 69.9891L50.1408 66.647H45.6605L45.6671 66.6404Z" fill="#CDCCCC"/>
<path d="M40.8512 85.6339C40.8512 85.6339 55.3776 82.8247 55.2197 76.9694L56.0684 80.0878L51.8579 86.2655L42.0486 89.9497L37.2262 88.0287L36.5156 87.0813L40.8512 85.6339Z" fill="#CDCCCC"/>
<path d="M34.1141 65.0878C29.1404 72.147 10.5547 72.2326 10.5547 72.2326L16.8574 76.4037L22.3311 75.6997L31.943 70.5944L34.1075 65.0878H34.1141Z" fill="#CDCCCC"/>
<path d="M87.6679 37.6666C87.6679 37.6666 96.9904 41.568 82.3061 45.3443L78.7402 47.7522V50.8838L82.2732 53.3312C82.2732 53.3312 84.76 54.7984 81.9113 55.9168C79.0626 57.0418 78.7402 60.3313 78.7402 60.3313V62.8379L86.8192 64.3708L90.5693 65.8708C90.5693 65.8708 90.8193 70.0616 79.1416 69.0419L81.9771 70.9235L90.5627 71.3314L92.4377 66.3379L80.6416 62.2458L79.7402 60.1997L85.589 57.6207L86.1811 54.022L80.3455 50.3246L79.2863 48.3772L80.385 47.4036L83.5363 47.7588L92.4443 45.9299L95.2733 39.9101L94.6285 36.5416L87.6679 37.6798V37.6666Z" fill="#CDCCCC"/>
<path d="M60.9173 54.9955C60.9173 54.9955 64.0883 62.1008 57.7462 69.1403C51.404 76.1799 68.2989 78.2523 68.2989 78.2523L63.5028 82.3247L56.3185 81.2128L55.8843 77.2522L50.279 75.6075L49.2593 73.8377L52.7264 69.9824L51.5225 67.2719L57.8909 62.035L59.5225 57.4758L60.9107 54.9955H60.9173Z" fill="#CDCCCC"/>
<path d="M58.2792 49.9364C58.2792 49.9364 54.2989 66.2523 47.0752 64.4431L50.1542 66.6339L54.4766 65.5747L59.5358 57.4693L58.2792 49.9298V49.9364Z" fill="#CDCCCC"/>
<path d="M18.7918 76.9299C15.9826 76.9299 14.1865 76.226 14.0484 76.1733C11.0944 74.9759 9.51542 73.2786 9.34437 71.1272C8.92989 65.9759 17.3642 60.6863 18.3313 60.1008C18.9102 59.7521 19.6602 59.9298 20.0089 60.5087C20.3576 61.0877 20.18 61.8377 19.601 62.1864C16.4628 64.1008 11.5615 68.1667 11.7852 70.9299C11.8773 72.0812 12.9497 73.0812 14.976 73.9036C15.1997 73.9957 20.7458 76.0944 27.7787 71.7588C28.3511 71.4035 29.1077 71.5812 29.463 72.1601C29.8182 72.7325 29.6406 73.4891 29.0616 73.8444C25.0879 76.2917 21.4826 76.9299 18.805 76.9299H18.7918Z" fill="black"/>
<path d="M60.1671 83.2787C57.4763 83.2787 55.3447 82.5024 55.1933 82.4432C54.5618 82.2064 54.2394 81.5024 54.4762 80.8708C54.7131 80.2392 55.417 79.9169 56.0486 80.1537C56.1012 80.1734 61.371 82.0682 65.0947 79.3971C67.9171 77.3708 69.2592 73.2194 69.0882 67.0483C69.0685 66.3707 69.6014 65.8115 70.279 65.7917C70.95 65.7786 71.5158 66.3049 71.5356 66.9825C71.733 74.0221 70.0421 78.8708 66.5092 81.3971C64.4697 82.8577 62.1671 83.2787 60.1671 83.2787Z" fill="black"/>
<path d="M41.2922 91.009C38.8645 91.009 37.0553 90.18 36.1671 88.6405C34.3053 85.4168 37.4106 80.2523 43.2396 76.8904C45.8909 75.3575 48.7133 74.4365 51.1738 74.2917C53.9304 74.1273 55.9831 74.9694 56.9502 76.6404C57.9173 78.3115 57.6147 80.5089 56.0949 82.8181C54.7397 84.8774 52.5357 86.8576 49.8778 88.3905C47.2264 89.9234 44.4041 90.8445 41.9435 90.9892C41.7198 91.0024 41.5027 91.009 41.2922 91.009ZM51.8252 76.7194C51.6607 76.7194 51.4896 76.7194 51.312 76.7326C49.2265 76.851 46.7922 77.6602 44.4633 79.0089C39.5882 81.8247 37.2987 85.6997 38.2856 87.4168C38.7593 88.2392 40.0422 88.6471 41.8053 88.5484C43.8909 88.43 46.3251 87.6208 48.6541 86.2721C50.9831 84.93 52.8975 83.226 54.0489 81.476C55.016 80.0023 55.3055 78.6865 54.8318 77.8641C54.4041 77.1273 53.3252 76.7194 51.8252 76.7194Z" fill="black"/>
<path d="M39.8642 77.7391C38.647 77.7391 37.4957 77.6075 36.4628 77.3444C34.0023 76.7194 32.4365 75.4167 32.0549 73.6733C31.6667 71.9299 32.5351 70.0812 34.5023 68.4825C36.2391 67.068 38.6865 65.9627 41.3971 65.364C47.4761 64.0219 52.6208 65.5614 53.3708 68.9561C54.1208 72.3509 50.1077 75.9233 44.0287 77.2654C42.6076 77.5812 41.1997 77.7391 39.8642 77.7391ZM45.5418 67.3377C44.43 67.3377 43.2063 67.4627 41.9234 67.7456C39.5747 68.2654 37.4891 69.1996 36.0483 70.3772C34.8509 71.3509 34.2654 72.3575 34.4431 73.147C34.6141 73.9299 35.5746 74.6009 37.0681 74.9759C38.8707 75.4365 41.1602 75.397 43.5023 74.8772C48.2392 73.8312 51.3577 71.1667 50.9827 69.4825C50.7129 68.2522 48.5353 67.3377 45.5418 67.3377Z" fill="black"/>
<path d="M9.49561 39.4099L16.8575 38.5612L22.272 34.9493L44.542 81.1405L40.8511 85.634L32.3445 87.2392L30.101 83.7063L9.49561 39.4099Z" fill="#76C0EC"/>
<path d="M27.5808 61.1534C27.5808 61.1534 22.6794 60.706 21.1334 64.4232L17.5215 57.1139L25.3834 57.2323L27.5808 61.1534Z" fill="#2494CD"/>
<path d="M21.3116 37.3179C21.3116 37.3179 22.4563 41.0088 15.5747 43.3377C13.0417 44.193 29.1011 63.1603 29.1011 63.1603C29.1011 63.1603 28.6998 59.5879 31.4301 60.8313C34.1603 62.0747 36.5288 71.3182 36.5288 71.3182L39.1801 70.2195L23.0287 36.2192L21.3181 37.3179H21.3116Z" fill="#2494CD"/>
<path d="M14.9295 40.127C14.9295 40.127 11.6202 40.548 13.9689 44.423L29.1401 75.3641L27.1335 77.6141L10.0479 40.7585L14.9361 40.1335L14.9295 40.127Z" fill="#ABD7ED"/>
<path d="M27.1277 77.6076C27.1277 77.6076 34.029 70.147 40.2067 72.2326L44.3778 80.8182L41.9699 84.1077L34.2659 87.3972L31.3777 86.838L27.1211 77.6076H27.1277Z" fill="white"/>
<path d="M31.1998 84.0813C31.1998 84.0813 41.5683 84.43 41.7064 79.1273L43.417 79.6668L42.0551 84.601L36.5222 87.0682L32.0287 86.4037L30.1011 83.6931L31.1998 84.0681V84.0813Z" fill="#CDCCCC"/>
<path d="M10.0417 28.7454L9.49561 39.4099H17.5154L22.272 34.9494L18.1667 30.8046L13.193 26.3046L10.0417 28.7454Z" fill="white"/>
<path d="M35.7195 88.0155C33.9695 88.0155 32.1208 87.5024 30.1866 86.476L29.8642 86.305L9.04825 41.2125C8.89036 40.8638 8.51535 40.0546 8.9693 39.3375C9.42326 38.627 10.2456 38.6204 11.0483 38.6204L17.1141 38.3441L21.3905 34.9954C21.5089 34.8967 21.5944 34.8177 21.6668 34.7585C21.9168 34.5348 22.3444 34.1598 22.9628 34.3375C23.5747 34.5085 23.7392 35.048 23.805 35.2782C23.8444 35.4033 23.8905 35.5546 23.9892 35.7717L44.3775 79.2194C44.8907 80.3181 44.8249 81.601 44.1933 82.6471C43.338 84.0615 41.838 85.9826 39.5682 87.1076C38.3445 87.7129 37.0551 88.0221 35.7064 88.0221L35.7195 88.0155ZM31.5287 84.7195C37.4432 87.68 40.838 84.0023 42.3446 81.5155C42.6012 81.0944 42.6275 80.5747 42.4235 80.1339L22.226 37.1006L17.9102 40.4757L11.2456 40.7783L31.5287 84.7195Z" fill="black"/>
<path d="M10.2589 40.8245H10.2325C9.70622 40.8245 9.20621 40.6008 8.8641 40.206C8.51542 39.8113 8.35752 39.285 8.42331 38.7652L10.1338 24.3572C10.2062 23.7783 10.5878 23.298 11.1207 23.1006C11.6536 22.8967 12.2523 23.0085 12.6865 23.3835L12.726 23.423L22.634 33.1205C23.2655 33.6928 23.5945 34.502 23.5419 35.3573C23.4826 36.2192 23.0419 36.9889 22.3182 37.4692L17.8773 40.4758L10.2589 40.8245ZM12.1404 25.8967L10.6339 38.6337L17.1668 38.3376L21.1076 35.6665C21.3247 35.5218 21.3642 35.3244 21.3708 35.2126C21.3774 35.1073 21.3642 34.9034 21.1734 34.7323L21.1339 34.6928L12.1404 25.8901V25.8967Z" fill="black"/>
<path d="M26.9168 78.5483C26.3905 78.5483 25.9629 78.1207 25.9629 77.5944C25.9629 77.0681 26.1932 76.2325 28.2129 74.6865C30.8774 72.647 36.3577 69.7522 39.7262 70.6667C40.2327 70.8048 40.5354 71.3246 40.3972 71.8312C40.2591 72.3378 39.7393 72.6338 39.2327 72.5022C35.9103 71.6009 28.4234 76.2852 27.8642 77.6668C27.8248 78.1536 27.4169 78.5418 26.9168 78.5418V78.5483Z" fill="black"/>
<path d="M32.9699 73.8905C32.562 73.8905 32.1673 73.6537 31.9831 73.2589L16.5356 39.8639C16.2856 39.3179 16.5224 38.6731 17.0685 38.4231C17.6145 38.1731 18.2593 38.41 18.5093 38.956L33.9568 72.351C34.2068 72.8971 33.9699 73.5418 33.4239 73.7918C33.2791 73.8576 33.1212 73.8905 32.9699 73.8905Z" fill="black"/>
<path d="M25.3838 64.2852C25.1403 64.2852 24.9101 64.1536 24.7851 63.9299L20.535 56.1075C20.3574 55.7785 20.4758 55.364 20.8048 55.1864C21.1337 55.0088 21.5482 55.1272 21.7258 55.4562L25.9759 63.2786C26.1535 63.6075 26.0351 64.022 25.7061 64.1996C25.6009 64.2589 25.489 64.2852 25.3838 64.2852Z" fill="black"/>
<path d="M31.4233 61.5153C31.1799 61.5153 30.9364 61.3838 30.818 61.1469L27.8114 55.3113C27.6404 54.9758 27.7719 54.5679 28.1009 54.3969C28.4364 54.2258 28.8443 54.3574 29.0154 54.6863L32.022 60.5219C32.193 60.8574 32.0614 61.2653 31.7325 61.4364C31.6338 61.489 31.5285 61.5153 31.4233 61.5153Z" fill="black"/>
<path d="M30.7 85.5616C30.1737 85.5616 29.7461 85.134 29.7461 84.6076C29.7461 83.7063 30.3382 82.6932 31.4566 81.68C33.9303 79.4431 38.7133 77.4036 43.0883 77.8379C43.608 77.8905 43.9896 78.3576 43.9436 78.8773C43.8909 79.3971 43.4238 79.7852 42.9041 79.7326C39.1278 79.3576 34.8448 81.18 32.7395 83.0879C31.8843 83.8642 31.654 84.4037 31.654 84.6076C31.654 85.134 31.2264 85.5616 30.7 85.5616Z" fill="black"/>
<path d="M34.7523 41.9758L27.1273 42.6995L11.5614 46.3903L8.18632 50.5022L7.70605 52.9693L11.3179 56.1799L18.1535 57.8641L32.5089 57.1141L37.2721 65.9497L41.4169 63.726V60.272L36.1142 48.8772L34.7523 41.9758Z" fill="white"/>
<path d="M8.18632 50.5022C8.18632 50.5022 22.7522 57.1404 33.8444 51.9035L36.9958 50.8443L39.9432 57.1141L42.0484 62.3181L38.4826 66.6405L35.3115 60.5549L32.022 56.1075L22.9957 57.2391L13.0416 56.4233L7.70605 52.9759L8.18632 50.5088V50.5022Z" fill="#CDCCCC"/>
<path d="M37.818 70.0024L31.9166 57.7589C18.7191 59.6668 10.4362 58.7326 7.2914 54.976C5.35718 52.6667 6.15982 50.2128 6.19271 50.1075L6.23219 49.9891L6.2914 49.8838C12.2586 39.6206 35.9166 41.0087 36.9232 41.0679C37.5943 41.114 38.1074 41.693 38.068 42.364C38.0219 43.0351 37.443 43.5482 36.7719 43.5088C36.5416 43.4956 13.8507 42.1601 8.48878 50.9759C8.42299 51.2917 8.28483 52.3772 9.20589 53.443C10.7125 55.1865 15.7388 57.7391 32.4495 55.1996L33.3442 55.0615L38.2324 65.1997L41.0614 61.2194C41.4496 60.6668 42.2127 60.5418 42.7654 60.93C43.318 61.3181 43.443 62.0813 43.0549 62.6339L37.8246 69.9892L37.818 70.0024Z" fill="black"/>
<path d="M74.9233 82.0353C72.3312 82.0353 69.5877 80.4892 68.8114 77.1866C68.6601 76.5287 69.068 75.8708 69.7259 75.7195C70.3838 75.5682 71.0417 75.9761 71.193 76.634C71.7391 78.9695 73.9036 79.8642 75.6667 79.5221C76.2259 79.4103 77.9891 78.9037 77.7917 76.8511C75.8115 73.601 75.3444 71.4037 76.3246 69.9497C77.3641 68.397 79.4233 68.6931 79.6536 68.7326L79.7786 68.7589C83.0155 69.6471 90.0682 70.6997 91.2326 68.2655C91.4629 67.7918 91.3774 67.5155 91.2655 67.3115C90.5287 65.9299 86.7984 64.8247 84.3707 64.476C79.976 64.0944 77.6339 63.0944 77.4167 61.5154C77.1865 59.8115 79.2523 58.7917 81.3115 58.0285C84.9694 56.6601 85.2458 55.5746 85.2655 55.3706C85.305 54.9364 84.7458 54.4232 84.3839 54.1732C79.5878 52.9693 77.1865 51.0811 77.2391 48.5679C77.2588 47.5613 77.726 46.6008 78.5154 45.9363C79.3444 45.239 80.4299 44.9363 81.4957 45.1008C86.7458 45.9034 90.6208 45.3311 92.6866 43.4429C94.4761 41.8113 94.3708 39.7192 94.3708 39.6337C94.2919 38.6271 93.93 38.285 93.6669 38.1139C91.8445 36.9626 86.5879 38.9889 82.3642 40.6139C78.9562 41.9231 75.7391 43.1666 73.3904 43.2982C68.2983 43.5876 66.489 42.3179 61.6535 38.9165C59.9363 37.7126 57.8047 36.2191 54.9626 34.3902C51.8639 33.0546 48.9362 32.9231 46.2652 33.9954C41.3309 35.9757 38.5941 41.4363 38.0677 42.581C38.1006 50.8245 39.6927 56.9956 42.798 60.9365C45.2981 64.1141 48.2783 65.147 50.3376 65.4562C51.535 65.6339 52.7586 65.3378 53.7718 64.6141C58.364 61.3378 58.7455 57.0351 58.2587 53.9956C57.6863 50.4364 55.8245 48.035 55.1863 47.8377C54.535 47.66 54.1468 46.9956 54.3244 46.3377C54.5021 45.6798 55.1731 45.2982 55.8245 45.4758C57.785 46.0021 59.9363 49.5153 60.6206 53.3114C61.1863 56.4298 61.2258 62.2983 55.1863 66.6076C53.6534 67.6997 51.7981 68.1536 49.9692 67.8773C47.4757 67.5023 43.8704 66.2589 40.8704 62.4562C37.3835 58.0285 35.6138 51.2587 35.6138 42.3245V42.081L35.7059 41.8574C35.8309 41.5481 38.9033 34.3178 45.3441 31.7323C48.6731 30.3967 52.2652 30.548 56.0218 32.1994L56.1074 32.2389L56.1863 32.2915C59.114 34.1731 61.2916 35.6994 63.0416 36.9297C67.7325 40.2258 68.9956 41.1073 73.2391 40.8705C75.1996 40.7587 78.3904 39.535 81.4694 38.3442C86.9366 36.2389 92.1011 34.252 94.9564 36.0547C96.0551 36.752 96.6735 37.8968 96.7919 39.4626C96.8051 39.6008 97.009 42.7653 94.3643 45.2126C91.6998 47.6798 87.2392 48.4561 81.1141 47.5219C80.7391 47.4627 80.3641 47.5745 80.0747 47.8113C79.9299 47.9364 79.6799 48.2061 79.6733 48.6206C79.647 49.7982 81.6997 51.0022 85.1536 51.8443L85.3247 51.8838L85.476 51.9693C85.7194 52.1074 87.8774 53.4101 87.6997 55.5614C87.5484 57.4233 85.7392 58.9759 82.1668 60.3115C81.1799 60.6799 80.5944 60.9759 80.2523 61.1865C81.147 61.5351 82.9365 61.897 84.6142 62.0417H84.68C84.7523 62.0615 86.4102 62.2983 88.2721 62.8641C90.9629 63.6865 92.6932 64.7983 93.4235 66.1536C93.9498 67.1405 93.9563 68.2391 93.4366 69.3247C91.1208 74.1668 80.7523 71.5615 79.2062 71.1405C78.9233 71.1076 78.4562 71.1602 78.351 71.3181C78.351 71.3247 77.7983 72.2458 80.0089 75.7984L80.1405 76.009L80.1799 76.2524C80.5483 78.6142 79.4431 81.2853 76.1338 81.9366C75.7391 82.0156 75.3312 82.0551 74.9167 82.0551L74.9233 82.0353Z" fill="black"/>
<path d="M52.5289 63.1404C52.1276 63.1404 51.7328 62.9431 51.5025 62.5812C51.1341 62.0154 51.2986 61.2588 51.8644 60.8904C52.4894 60.4825 52.6868 59.4891 52.6868 58.522C50.8644 60.2522 47.7262 60.8246 47.2657 60.897C46.6012 61.0088 45.9696 60.5549 45.8578 59.8904C45.7459 59.2259 46.1999 58.5943 46.8643 58.4825C48.2723 58.2457 51.2723 57.3049 51.5157 55.8904C51.7525 54.5351 52.5223 54.2719 52.9565 54.239C53.5091 54.193 54.2657 54.443 54.7328 55.8312C55.2855 57.4693 55.6276 61.3575 53.1868 62.9365C52.9828 63.0681 52.7526 63.1339 52.5223 63.1339L52.5289 63.1404Z" fill="black"/>
<path d="M11.2067 24.4888L10.4106 31.2257C10.4106 31.2257 15.2923 32.7915 15.9765 28.8572L11.2133 24.4953L11.2067 24.4888Z" fill="black"/>
</svg>
