<?xml version="1.0" encoding="UTF-8"?><svg id="uuid-a992424e-c944-490c-bed3-d2722583df91" xmlns="http://www.w3.org/2000/svg" viewBox="0 0 896.61 203.44"><defs><style>.uuid-5e2cc95b-aae8-4a96-8291-4d6dd073d038{fill:#c6e6f2;stroke:#000;stroke-miterlimit:10;stroke-width:5px;}.uuid-74fbd060-3cbf-4876-babf-362de430e266{fill:#1d1d1b;font-family:BerlinSansFBDemi-Bold, 'Berlin Sans FB Demi';font-size:132.5px;font-weight:700;}.uuid-4a5d2b0a-70f5-4f48-b325-70fc5dd88ddb{fill:#fff;}.uuid-abbec94a-b9dd-4d98-bfdd-d8d3215879fb{fill:#cdcccc;}.uuid-2d98edfa-b9e3-41bb-b365-bb1b07fb7579{fill:#abd7ed;}.uuid-067e0c5d-caea-427a-a50f-05012eee1062{fill:#76c0ec;}.uuid-8b690fab-b8a6-4413-b6d8-b6ee787e2041{fill:#2494cd;}</style></defs><text id="uuid-e3555a8d-a831-4513-a764-842a7de4499f" class="uuid-74fbd060-3cbf-4876-babf-362de430e266" transform="translate(242.4 142.64)"><tspan x="0" y="0">Sarinskovic</tspan></text><g id="uuid-2cea6607-a11a-46c9-8e97-2930018fa679"><circle class="uuid-5e2cc95b-aae8-4a96-8291-4d6dd073d038" cx="101.72" cy="101.72" r="99.22"/><g id="uuid-c9e7c7d3-051f-4503-bae5-e077a51c8d22"><polygon class="uuid-4a5d2b0a-70f5-4f48-b325-70fc5dd88ddb" points="166.86 93.84 174.99 90.06 183.11 90.06 186.06 91.95 184.24 96.76 176.89 99.1 166.86 93.84"/><path d="m178.8,100.46c-3.34,0-7.81-1.18-13.8-4.51-.64-.35-1.04-1.02-1.05-1.75-.01-.72.36-1.41.98-1.78h0c1.02-.62,4.67-2.72,8.74-4.05,5.67-1.84,9.91-1.48,12.61,1.08,1.85,1.75,2.2,4.6.84,6.76-1.22,1.94-3.66,4.25-8.33,4.25Zm-9.26-6.34c7.21,3.46,12.29,3.52,14.44.11.41-.66.3-1.55-.25-2.08-2.04-1.93-5.97-1.2-8.91-.25-1.96.64-3.83,1.48-5.28,2.22Zm-2.69,1.48h0Z"/><polygon class="uuid-4a5d2b0a-70f5-4f48-b325-70fc5dd88ddb" points="160.02 73.32 149.53 77.22 136.37 79.17 125.86 79.17 113.42 70.39 99.76 66 90.49 67.46 79.75 77.95 78.53 84.54 80.24 98.6 56.83 107.96 46.33 115.04 40.71 121.62 40.71 126.99 45.59 132.36 54.87 131.38 61.45 130.16 72.92 126.99 78.77 149.44 81.7 153.1 89.27 154.07 97.81 151.63 105.12 145.78 108.05 140.41 113.66 141.14 117.32 139.92 122.93 138.46 127.08 136.02 132.21 138.46 136.37 140.9 142.21 139.19 144.16 135.53 139.77 128.21 140.01 124.06 154.16 123.82 162.95 122.6 162.95 117.47 155.87 113.57 144.89 112.6 144.16 110.03 149.53 105.28 153.43 102.59 153.68 98.6 144.89 93.84 143.43 89.08 148.8 87.71 156.85 87.95 165.81 84.05 167.58 78.19 167.58 73.56 160.02 73.32"/><path class="uuid-abbec94a-b9dd-4d98-bfdd-d8d3215879fb" d="m92.68,118.37s3.17,8.38-8.3,8.5l2.79,6.91,11.56-3.43,4.68-6.89-3.93-5.08h-6.81Z"/><path class="uuid-abbec94a-b9dd-4d98-bfdd-d8d3215879fb" d="m85.36,147.24s22.08-4.27,21.84-13.17l1.29,4.74-6.4,9.39-14.91,5.6-7.33-2.92-1.08-1.44,6.59-2.2Z"/><path class="uuid-abbec94a-b9dd-4d98-bfdd-d8d3215879fb" d="m75.12,116.01c-7.56,10.73-35.81,10.86-35.81,10.86l9.58,6.34,8.32-1.07,14.61-7.76,3.29-8.37Z"/><path class="uuid-abbec94a-b9dd-4d98-bfdd-d8d3215879fb" d="m156.52,74.33s14.17,5.93-8.15,11.67l-5.42,3.66v4.76l5.37,3.72s3.78,2.23-.55,3.93c-4.33,1.71-4.82,6.71-4.82,6.71v3.81l12.28,2.33,5.7,2.28s.38,6.37-17.37,4.82l4.31,2.86,13.05.62,2.85-7.59-17.93-6.22-1.37-3.11,8.89-3.92.9-5.47-8.87-5.62-1.61-2.96,1.67-1.48,4.79.54,13.54-2.78,4.3-9.15-.98-5.12-10.58,1.73Z"/><path class="uuid-abbec94a-b9dd-4d98-bfdd-d8d3215879fb" d="m115.86,100.67s4.82,10.8-4.82,21.5,16.04,13.85,16.04,13.85l-7.29,6.19-10.92-1.69-.66-6.02-8.52-2.5-1.55-2.69,5.27-5.86-1.83-4.12,9.68-7.96,2.48-6.93,2.11-3.77Z"/><path class="uuid-abbec94a-b9dd-4d98-bfdd-d8d3215879fb" d="m111.85,92.98s-6.05,24.8-17.03,22.05l4.68,3.33,6.57-1.61,7.69-12.32-1.91-11.46Z"/><path d="m51.83,134.01c-4.27,0-7-1.07-7.21-1.15-4.49-1.82-6.89-4.4-7.15-7.67-.63-7.83,12.19-15.87,13.66-16.76.88-.53,2.02-.26,2.55.62s.26,2.02-.62,2.55c-4.77,2.91-12.22,9.09-11.88,13.29.14,1.75,1.77,3.27,4.85,4.52.34.14,8.77,3.33,19.46-3.26.87-.54,2.02-.27,2.56.61.54.87.27,2.02-.61,2.56-6.04,3.72-11.52,4.69-15.59,4.69Z"/><path d="m114.72,143.66c-4.09,0-7.33-1.18-7.56-1.27-.96-.36-1.45-1.43-1.09-2.39.36-.96,1.43-1.45,2.39-1.09h0c.08.03,8.09,2.91,13.75-1.15,4.29-3.08,6.33-9.39,6.07-18.77-.03-1.03.78-1.88,1.81-1.91,1.02-.02,1.88.78,1.91,1.81.3,10.7-2.27,18.07-7.64,21.91-3.1,2.22-6.6,2.86-9.64,2.86Z"/><path d="m86.03,155.41c-3.69,0-6.44-1.26-7.79-3.6-2.83-4.9,1.89-12.75,10.75-17.86,4.03-2.33,8.32-3.73,12.06-3.95,4.19-.25,7.31,1.03,8.78,3.57,1.47,2.54,1.01,5.88-1.3,9.39-2.06,3.13-5.41,6.14-9.45,8.47-4.03,2.33-8.32,3.73-12.06,3.95-.34.02-.67.03-.99.03Zm16.01-21.72c-.25,0-.51,0-.78.02-3.17.18-6.87,1.41-10.41,3.46-7.41,4.28-10.89,10.17-9.39,12.78.72,1.25,2.67,1.87,5.35,1.72,3.17-.18,6.87-1.41,10.41-3.46,3.54-2.04,6.45-4.63,8.2-7.29,1.47-2.24,1.91-4.24,1.19-5.49h0c-.65-1.12-2.29-1.74-4.57-1.74Z"/><path d="m83.86,135.24c-1.85,0-3.6-.2-5.17-.6-3.74-.95-6.12-2.93-6.7-5.58-.59-2.65.73-5.46,3.72-7.89,2.64-2.15,6.36-3.83,10.48-4.74,9.24-2.04,17.06.3,18.2,5.46h0c1.14,5.16-4.96,10.59-14.2,12.63-2.16.48-4.3.72-6.33.72Zm8.63-15.81c-1.69,0-3.55.19-5.5.62-3.57.79-6.74,2.21-8.93,4-1.82,1.48-2.71,3.01-2.44,4.21.26,1.19,1.72,2.21,3.99,2.78,2.74.7,6.22.64,9.78-.15,7.2-1.59,11.94-5.64,11.37-8.2-.41-1.87-3.72-3.26-8.27-3.26Z"/><g id="uuid-fb048dae-caaa-483c-9654-658b0b86e13d"><polygon class="uuid-067e0c5d-caea-427a-a50f-05012eee1062" points="37.7 76.98 48.89 75.69 57.12 70.2 90.97 140.41 85.36 147.24 72.43 149.68 69.02 144.31 37.7 76.98"/><path class="uuid-8b690fab-b8a6-4413-b6d8-b6ee787e2041" d="m65.19,110.03s-7.45-.68-9.8,4.97l-5.49-11.11,11.95.18,3.34,5.96Z"/><path class="uuid-8b690fab-b8a6-4413-b6d8-b6ee787e2041" d="m55.66,73.8s1.74,5.61-8.72,9.15c-3.85,1.3,20.56,30.13,20.56,30.13,0,0-.61-5.43,3.54-3.54s7.75,15.94,7.75,15.94l4.03-1.67-24.55-51.68-2.6,1.67Z"/><path class="uuid-2d98edfa-b9e3-41bb-b365-bb1b07fb7579" d="m45.96,78.07s-5.03.64-1.46,6.53l23.06,47.03-3.05,3.42-25.97-56.02,7.43-.95Z"/><path class="uuid-4a5d2b0a-70f5-4f48-b325-70fc5dd88ddb" d="m64.5,135.04s10.49-11.34,19.88-8.17l6.34,13.05-3.66,5-11.71,5-4.39-.85-6.47-14.03Z"/><path class="uuid-abbec94a-b9dd-4d98-bfdd-d8d3215879fb" d="m70.69,144.88s15.76.53,15.97-7.53l2.6.82-2.07,7.5-8.41,3.75-6.83-1.01-2.93-4.12,1.67.57Z"/><polygon class="uuid-4a5d2b0a-70f5-4f48-b325-70fc5dd88ddb" points="38.53 60.77 37.7 76.98 49.89 76.98 57.12 70.2 50.88 63.9 43.32 57.06 38.53 60.77"/><path d="m77.56,150.86c-2.66,0-5.47-.78-8.41-2.34l-.49-.26-31.64-68.54c-.24-.53-.81-1.76-.12-2.85.69-1.08,1.94-1.09,3.16-1.09l9.22-.42,6.5-5.09c.18-.15.31-.27.42-.36.38-.34,1.03-.91,1.97-.64.93.26,1.18,1.08,1.28,1.43.06.19.13.42.28.75l30.99,66.04c.78,1.67.68,3.62-.28,5.21-1.3,2.15-3.58,5.07-7.03,6.78-1.86.92-3.82,1.39-5.87,1.39Zm-6.37-5.01c8.99,4.5,14.15-1.09,16.44-4.87.39-.64.43-1.43.12-2.1l-30.7-65.41-6.56,5.13-10.13.46,30.83,66.79Z"/><path d="m38.86,79.13h-.04c-.8,0-1.56-.34-2.08-.94-.53-.6-.77-1.4-.67-2.19l2.6-21.9c.11-.88.69-1.61,1.5-1.91.81-.31,1.72-.14,2.38.43l.06.06,15.06,14.74c.96.87,1.46,2.1,1.38,3.4-.09,1.31-.76,2.48-1.86,3.21l-6.75,4.57-11.58.53Zm.49-2.73h0s0,0,0,0Zm2.37-19.96l-2.29,19.36,9.93-.45,5.99-4.06c.33-.22.39-.52.4-.69.01-.16-.01-.47-.3-.73l-.06-.06-13.67-13.38Z"/><path d="m64.18,136.47c-.8,0-1.45-.65-1.45-1.45s.35-2.07,3.42-4.42c4.05-3.1,12.38-7.5,17.5-6.11.77.21,1.23,1,1.02,1.77-.21.77-1,1.22-1.77,1.02-5.05-1.37-16.43,5.75-17.28,7.85-.06.74-.68,1.33-1.44,1.33Zm1.45-1.45h0s0,0,0,0Z"/><path d="m73.38,129.39c-.62,0-1.22-.36-1.5-.96l-23.48-50.76c-.38-.83-.02-1.81.81-2.19.83-.38,1.81-.02,2.19.81l23.48,50.76c.38.83.02,1.81-.81,2.19-.22.1-.46.15-.69.15Z"/><path d="m61.85,114.79c-.37,0-.72-.2-.91-.54l-6.46-11.89c-.27-.5-.09-1.13.41-1.4.5-.27,1.13-.09,1.4.41l6.46,11.89c.27.5.09,1.13-.41,1.4-.16.09-.33.13-.49.13Z"/><path d="m71.03,110.58c-.37,0-.74-.2-.92-.56l-4.57-8.87c-.26-.51-.06-1.13.44-1.39.51-.26,1.13-.06,1.39.44l4.57,8.87c.26.51.06,1.13-.44,1.39-.15.08-.31.12-.47.12Z"/><path d="m69.93,147.13c-.8,0-1.45-.65-1.45-1.45,0-1.37.9-2.91,2.6-4.45,3.76-3.4,11.03-6.5,17.68-5.84.79.08,1.37.79,1.3,1.58-.08.79-.79,1.38-1.58,1.3-5.74-.57-12.25,2.2-15.45,5.1-1.3,1.18-1.65,2-1.65,2.31,0,.8-.65,1.45-1.45,1.45Z"/></g><polygon class="uuid-4a5d2b0a-70f5-4f48-b325-70fc5dd88ddb" points="76.09 80.88 64.5 81.98 40.84 87.59 35.71 93.84 34.98 97.59 40.47 102.47 50.86 105.03 72.68 103.89 79.92 117.32 86.22 113.94 86.22 108.69 78.16 91.37 76.09 80.88"/><path class="uuid-abbec94a-b9dd-4d98-bfdd-d8d3215879fb" d="m35.71,93.84s22.14,10.09,39,2.13l4.79-1.61,4.48,9.53,3.2,7.91-5.42,6.57-4.82-9.25-5-6.76-13.72,1.72-15.13-1.24-8.11-5.24.73-3.75Z"/><path d="m80.75,123.48l-8.97-18.61c-20.06,2.9-32.65,1.48-37.43-4.23-2.94-3.51-1.72-7.24-1.67-7.4l.06-.18.09-.16c9.07-15.6,45.03-13.49,46.56-13.4,1.02.07,1.8.95,1.74,1.97-.07,1.02-.95,1.8-1.97,1.74-.35-.02-34.84-2.05-42.99,11.35-.1.48-.31,2.13,1.09,3.75,2.29,2.65,9.93,6.53,35.33,2.67l1.36-.21,7.43,15.41,4.3-6.05c.59-.84,1.75-1.03,2.59-.44.84.59,1.03,1.75.44,2.59l-7.95,11.18Z"/><path d="m137.15,141.77c-3.94,0-8.11-2.35-9.29-7.37-.23-1,.39-2,1.39-2.23,1-.23,2,.39,2.23,1.39.83,3.55,4.12,4.91,6.8,4.39.85-.17,3.53-.94,3.23-4.06-3.01-4.94-3.72-8.28-2.23-10.49,1.58-2.36,4.71-1.91,5.06-1.85l.19.04c4.92,1.35,15.64,2.95,17.41-.75.35-.72.22-1.14.05-1.45-1.12-2.1-6.79-3.78-10.48-4.31-6.68-.58-10.24-2.1-10.57-4.5-.35-2.59,2.79-4.14,5.92-5.3,5.56-2.08,5.98-3.73,6.01-4.04.06-.66-.79-1.44-1.34-1.82-7.29-1.83-10.94-4.7-10.86-8.52.03-1.53.74-2.99,1.94-4,1.26-1.06,2.91-1.52,4.53-1.27,7.98,1.22,13.87.35,17.01-2.52,2.72-2.48,2.56-5.66,2.56-5.79-.12-1.53-.67-2.05-1.07-2.31-2.77-1.75-10.76,1.33-17.18,3.8-5.18,1.99-10.07,3.88-13.64,4.08-7.74.44-10.49-1.49-17.84-6.66-2.61-1.83-5.85-4.1-10.17-6.88-4.71-2.03-9.16-2.23-13.22-.6-7.5,3.01-11.66,11.31-12.46,13.05.05,12.53,2.47,21.91,7.19,27.9,3.8,4.83,8.33,6.4,11.46,6.87,1.82.27,3.68-.18,5.22-1.28,6.98-4.98,7.56-11.52,6.82-16.14-.87-5.41-3.7-9.06-4.67-9.36-.99-.27-1.58-1.28-1.31-2.28s1.29-1.58,2.28-1.31c2.98.8,6.25,6.14,7.29,11.91.86,4.74.92,13.66-8.26,20.21-2.33,1.66-5.15,2.35-7.93,1.93-3.79-.57-9.27-2.46-13.83-8.24-5.3-6.73-7.99-17.02-7.99-30.6v-.37l.14-.34c.19-.47,4.86-11.46,14.65-15.39,5.06-2.03,10.52-1.8,16.23.71l.13.06.12.08c4.45,2.86,7.76,5.18,10.42,7.05,7.13,5.01,9.05,6.35,15.5,5.99,2.98-.17,7.83-2.03,12.51-3.84,8.31-3.2,16.16-6.22,20.5-3.48,1.67,1.06,2.61,2.8,2.79,5.18.02.21.33,5.02-3.69,8.74-4.05,3.75-10.83,4.93-20.14,3.51-.57-.09-1.14.08-1.58.44-.22.19-.6.6-.61,1.23-.04,1.79,3.08,3.62,8.33,4.9l.26.06.23.13c.37.21,3.65,2.19,3.38,5.46-.23,2.83-2.98,5.19-8.41,7.22-1.5.56-2.39,1.01-2.91,1.33,1.36.53,4.08,1.08,6.63,1.3h.1c.11.03,2.63.39,5.46,1.25,4.09,1.25,6.72,2.94,7.83,5,.8,1.5.81,3.17.02,4.82-3.52,7.36-19.28,3.4-21.63,2.76-.43-.05-1.14.03-1.3.27,0,.01-.84,1.41,2.52,6.81l.2.32.06.37c.56,3.59-1.12,7.65-6.15,8.64-.6.12-1.22.18-1.85.18Z"/><path d="m103.11,113.05c-.61,0-1.21-.3-1.56-.85-.56-.86-.31-2.01.55-2.57.95-.62,1.25-2.13,1.25-3.6-2.77,2.63-7.54,3.5-8.24,3.61-1.01.17-1.97-.52-2.14-1.53-.17-1.01.52-1.97,1.53-2.14h0c2.14-.36,6.7-1.79,7.07-3.94.36-2.06,1.53-2.46,2.19-2.51.84-.07,1.99.31,2.7,2.42.84,2.49,1.36,8.4-2.35,10.8-.31.2-.66.3-1.01.3Zm2.19-10.61h0Z"/><path d="m40.3,54.3l-1.21,10.24s7.42,2.38,8.46-3.6l-7.24-6.63Z"/></g></g></svg>